<svg viewBox="0 0 400 300" fill="none" xmlns="http://www.w3.org/2000/svg"><path fill-rule="evenodd" clip-rule="evenodd" d="M100.913 49.93s-20 17.2-32.5 62.2c-10.3 52.7 32.5 122.5 32.5 122.5s29.6 14.5 45-5.3c15.4-19.8 84.9-15.5 84.9-15.5s-31.6-38.7-42.2-73.6c-10.6-34.9 21.3-80.9 21.3-80.9l-109-9.4Z" fill="#EFEFEF"/><path fill-rule="evenodd" clip-rule="evenodd" d="M106.014 85.13c-5.8 5.1-7.7 13.5-12 22.3 21.9.2 45.2 2.8 62.7 1.3l6.2-16.8c-15.5-.5-38.2-3.2-56.9-6.8ZM91.414 125.53c-1.4 4.4-1.4 15.5-1.4 15.5 20.2.4 42.7.4 63.8-3.4v-12.1c.1 0-47.3 1.9-62.4 0Z" fill="#D8D8D8"/><path fill-rule="evenodd" clip-rule="evenodd" d="M111.613 160.63c-1.4 6.4-.7 11.7 1.4 16.3 20.2 2 40.3 3 60-5.3-1.5-5-2.2-10.4-1.4-16.3-20 5.2-40 6.7-60 5.3Z" fill="#B5B5B6"/><path fill-rule="evenodd" clip-rule="evenodd" d="M217.609 97.583c-3.6 11.7-14.2 24.7-14.2 24.7s24.5-2.4 29.7 4.2c5.2 6.7 8.3 11.7 8.3 11.7s21.4-25.8 15.3-45.4c-6.1-19.5-15.3-25.6-15.3-25.6l-31 3.2s10.8 15.4 7.2 27.2Z" fill="#EFEFEF"/><path fill-rule="evenodd" clip-rule="evenodd" d="M224.91 84.983c5.8.4 14.8-1.2 22.2-1.3-1.5-3-3.3-5-5.2-6.7-7.4 2.2-13.3 2.3-19.1 2.3 1 1.7 2 3.4 2.1 5.7ZM224.409 97.483c6.8 1.2 16.7.1 23.4-.9.6-1-.8-4.8-1.8-5.5-5.7.4-13.9 1.4-21.2 0 .4 2.1.4 4.9-.4 6.4ZM221.509 107.683c6.7 2.8 18 2.8 24.8 2.1.7-1.5 1-3.3.5-5.5-6.7.5-16.6.2-23.4-1.6 0 1.6-1.1 3.9-1.9 5Z" fill="#DCDDDD"/><path fill-rule="evenodd" clip-rule="evenodd" d="M200.713 28.714c-3.6 7.7-6.3 26.4-6.3 26.4h13.4c2.1-3.4 4-7 6-11.4 1.2-2.6 2.4-6.1 3.4-8.3 1.9-3.8 3.5-5.5 4.1-6.7.6-1.1-.6-3.3-2.4-2-2.1 1.6-6.8 7.6-6.8 7.6s4.9-10.2 4.7-11.3c-.1-1-.1-1.2-.6-1.8-.5-.6-1.8-.9-1.8-.9s-.3-1.5-.7-2c-.4-.5-1.5-.8-1.5-.8s-.3-1.1-.9-1.7c-.6-.6-2.2-1.1-3.1 0-.8 1.1-3.8 5.3-7.5 12.9Z" fill="#fff"/><path d="M200.713 28.714c-3.6 7.7-6.3 26.4-6.3 26.4h13.4c2.1-3.4 4-7 6-11.4 1.2-2.6 2.4-6.1 3.4-8.3 1.9-3.8 3.5-5.5 4.1-6.7.6-1.1-.6-3.3-2.4-2-2.1 1.6-6.8 7.6-6.8 7.6s4.9-10.2 4.7-11.3c-.1-1-.1-1.2-.6-1.8-.5-.6-1.8-.9-1.8-.9s-.3-1.5-.7-2c-.4-.5-1.5-.8-1.5-.8s-.3-1.1-.9-1.7c-.6-.6-2.2-1.1-3.1 0-.8 1.1-3.8 5.3-7.5 12.9Z" stroke="#000" stroke-width="1.5"/><path fill-rule="evenodd" clip-rule="evenodd" d="m111.913 256.814 1.2-100.2 40.8-32.7 20.9-14.7 16.2-63.1 25.2-2.8-10.7 72.8-30.8 50.2 44.3 82.1" fill="#fff"/><path d="m111.913 256.814 1.2-100.2 40.8-32.7 20.9-14.7 16.2-63.1 25.2-2.8-10.7 72.8-30.8 50.2 44.3 82.1" stroke="#000" stroke-width="1.5"/><path d="M296.413 111.614c3.7 6.1 3.4 9 3.8 12.5 0 0 10-5.8 17.2-8 7.2-2.2 22.5-4.2 22.5-4.2" stroke="#fff" stroke-width="11"/><path fill-rule="evenodd" clip-rule="evenodd" d="M207.113 208.714c-3.6 1-13.7 7.4-13.7 7.4s3-5.1 3.2-6.4c.2-1.2-.1-2.4-1.8-1.7s-23 18.8-23 18.8l3.4 8s15.5-1.3 23.7-4.9c8.3-3.6 9.6-5 10.6-6.1.7-.8-.4-3.4-.4-3.4s2.3-1.9 2.3-3.1c0-1-.9-1.9-.7-2 1.7-2.1-1.6-2.8-.8-4.1 1.3-1.8.8-3.4-2.8-2.5Z" fill="#fff"/><path d="M207.113 208.714c-3.6 1-13.7 7.4-13.7 7.4s3-5.1 3.2-6.4c.2-1.2-.1-2.4-1.8-1.7s-23 18.8-23 18.8l3.4 8s15.5-1.3 23.7-4.9c8.3-3.6 9.6-5 10.6-6.1.7-.8-.4-3.4-.4-3.4s2.3-1.9 2.3-3.1c0-1-.9-1.9-.7-2 1.7-2.1-1.6-2.8-.8-4.1 1.3-1.8.8-3.4-2.8-2.5Z" stroke="#000" stroke-width="1.5"/><path fill-rule="evenodd" clip-rule="evenodd" d="m153.813 180.714-.9.8-.9.8-.9.8-.4.4-.8.7-.8.7-.7.6s-.2.2-.4.3l-.7.7-.7.6-.6.6-.6.6-.5.6c-.2.2-.3.4-.5.6l-.3.4c-1.7 2-3.5 4.4-5.2 7.1l-.2.3-.2-.2c-1.3-.9-2.9-1.8-4.9-2.7-2.8-1.3-6.1-.2-7.5 2.5-1.3 2.6-.2 5.8 2.6 7 2.6 1.2 3.7 1.9 5 3.4l.4.5.5.5.5.6.5.5c2.6 2.9 7.4 2.4 9.3-1l.6-1.1c2.7-4.8 5.2-8.5 7.5-11.1l.4-.5.2-.2.5-.5.5-.5.5-.5.6-.6.6-.6.6-.6.7-.6.7-.6.8-.7c.1-.1.4-.3.4-.3l1.2-1 .4-.4 1.3-1.1 1.4-1.1 1.5-1.2 1.5-1.2c2.3-1.9 2.6-5.2.6-7.4s-5.5-2.5-7.9-.6l-1.7 1.3-1.1.9-1 .9-1 .8-.9.8Z" fill="#EFEFEF"/><path d="m153.813 180.714-.9.8-.9.8-.9.8-.4.4-.8.7-.8.7-.7.6s-.2.2-.4.3l-.7.7-.7.6-.6.6-.6.6-.5.6c-.2.2-.3.4-.5.6l-.3.4c-1.7 2-3.5 4.4-5.2 7.1l-.2.3-.2-.2c-1.3-.9-2.9-1.8-4.9-2.7-2.8-1.3-6.1-.2-7.5 2.5-1.3 2.6-.2 5.8 2.6 7 2.6 1.2 3.7 1.9 5 3.4l.4.5.5.5.5.6.5.5c2.6 2.9 7.4 2.4 9.3-1l.6-1.1c2.7-4.8 5.2-8.5 7.5-11.1l.4-.5.2-.2.5-.5.5-.5.5-.5.6-.6.6-.6.6-.6.7-.6.7-.6.8-.7c.1-.1.4-.3.4-.3l1.2-1 .4-.4 1.3-1.1 1.4-1.1 1.5-1.2 1.5-1.2c2.3-1.9 2.6-5.2.6-7.4s-5.5-2.5-7.9-.6l-1.7 1.3-1.1.9-1 .9-1 .8-.9.8Z" stroke="#000" stroke-width="1.5"/><path fill-rule="evenodd" clip-rule="evenodd" d="m154.713 227.414.7-.9c1.9-2.7 3.8-5 5.5-6.7l.2-.2.5-.5.2-.2.5-.5.5-.5.6-.5.6-.5.7-.6.7-.6.7-.6.8-.6.8-.6.8-.7 1.3-1 1.4-1.1 1.5-1.1 1.6-1.1 1.1-.8c2.5-1.8 2.9-5.1 1.1-7.4-1.9-2.3-5.4-2.7-7.8-1l-1.2.8-1.1.8-1.1.8-1.1.8-1 .8-1 .7-1 .7-.9.7-.9.7-.4.3-.8.7-.8.7c-.1.1-.3.2-.4.3l-.7.6s-.2.2-.4.3l-.7.6-.3.3-.6.6-.6.6-.8.8-.4.4c-1.8 1.9-3.7 4.2-5.6 6.8l-.2.2-.2-.2c-1.3-1-2.8-1.9-4.7-2.9-2.7-1.4-6.1-.5-7.6 2.1-1.5 2.5-.5 5.7 2.2 7.1 3 1.5 3.9 2.4 5.6 4.7l.4.5.4.6.2.3c2.4 2.9 7.2 2.5 9.2-.7.7-1.1 1.6-2.5 2.5-3.8Z" fill="#EFEFEF"/><path d="M113.113 156.614s-28.7 16.3-28.7 59.1.7 57.2 17.9 60.6c17.2 3.3 83.4-38.8 83.4-38.8l-7.5-21.8-54.6 12.9-2.9-35.9" fill="#fff"/><path d="M113.113 156.614s-28.7 16.3-28.7 59.1.7 57.2 17.9 60.6c17.2 3.3 83.4-38.8 83.4-38.8l-7.5-21.8-54.6 12.9-2.9-35.9" stroke="#000" stroke-width="1.5"/><path fill-rule="evenodd" clip-rule="evenodd" d="M114.613 145.614s-4.2 26.6 11.5 23.8c15.7-2.8 5.2-14.1 5.2-14.1s11.8-2.6 17.8-7 6-12 4.2-23.1c-1.8-11.1-8.5-22.9-8.5-22.9s-21.9-2.7-30.2 2.2c-6.9 4.1 0 9.7-2.5 15.8-.5 1.3-5.3 1.7-7.3 4.8-5.2 7.9 9.8 20.5 9.8 20.5Z" fill="#fff"/><path d="M114.613 145.614s-4.2 26.6 11.5 23.8c15.7-2.8 5.2-14.1 5.2-14.1s11.8-2.6 17.8-7 6-12 4.2-23.1c-1.8-11.1-8.5-22.9-8.5-22.9s-21.9-2.7-30.2 2.2c-6.9 4.1 0 9.7-2.5 15.8-.5 1.3-5.3 1.7-7.3 4.8-5.2 7.9 9.8 20.5 9.8 20.5Z" stroke="#000" stroke-width="1.5"/><path fill-rule="evenodd" clip-rule="evenodd" d="m121.213 133.014 2-25.7s5.3 3.2 14.5 3.2 21.7-15.6 18.3-22.7c-3.4-7.1-9.9 3.5-18.3 3.5s-14.6-5.3-28.6 3.6c-8 5-8.8 14.6-3.2 27.6 0 0 3.8-1.9 9.1.7 5.4 2.8 6.2 9.8 6.2 9.8Z" fill="#000"/><path fill-rule="evenodd" clip-rule="evenodd" d="M134.813 124.714c0-1.5-1.2-2.7-2.7-2.7-1.5 0-2.7 1.2-2.7 2.7 0 1.5 1.2 2.7 2.7 2.7 1.5 0 2.7-1.2 2.7-2.7ZM148.513 122.014c0-1.5-1.2-2.7-2.7-2.7-1.5 0-2.7 1.2-2.7 2.7 0 1.5 1.2 2.7 2.7 2.7 1.5 0 2.7-1.2 2.7-2.7Z" fill="#000"/><path d="M139.613 127.414s2.2.6 3.6 3.1c1.3 2.5-3.6 3.5-3.6 3.5M137.913 140.614s3.6 2.2 6.2 1.4c2.6-.8 4.1-4.3 4.1-4.3M111.913 125.914s-3.5.1-3.5 3.3c.1 3.2 2.5 4.8 2.5 4.8" stroke="#000" stroke-width="1.5"/><path fill-rule="evenodd" clip-rule="evenodd" d="M258.014 155.414c-13.4 17.5-23 22.7-23 22.7s18.2 3.3 29.9 10 21.6 15.9 21.6 15.9 23-15.2 34.4-38.6c11.4-23.4 6.1-43.2 6.1-43.2s-11.3-10.7-26.9-14.9c-15.6-4.2-32-2.7-32-2.7s3.3 33.3-10.1 50.8Z" fill="#5578EC"/><path d="M258.014 155.414c-13.4 17.5-23 22.7-23 22.7s18.2 3.3 29.9 10 21.6 15.9 21.6 15.9 23-15.2 34.4-38.6c11.4-23.4 6.1-43.2 6.1-43.2s-11.3-10.7-26.9-14.9c-15.6-4.2-32-2.7-32-2.7s3.3 33.3-10.1 50.8Z" stroke="#3351E5" stroke-width="9"/><path d="M273.714 154.314c9.4.3 17.9 3.3 25.4 11.1" stroke="#fff" stroke-width="6.5"/><path d="m283.613 128.314 1.9 12c13.9.1 25-2.7 34.9-6.8" stroke="#fff" stroke-width="11"/><path d="M267.214 167.014c5.4-.5 11.8 2.5 15.1 7.7" stroke="#fff" stroke-width="4.5"/><path fill-rule="evenodd" clip-rule="evenodd" d="M238.728 211.349s-5.5 1.8-7.7 9.8c-1.8 9.2 7.7 27 7.7 27s1.6-2.6 4.3-6c2.7-3.4 15.4-2.2 15.4-2.2s-5.5-6.8-7.4-12.9c-1.9-6 3.7-14.1 3.7-14.1l-16-1.6Z" fill="#EFEFEF"/><path d="M238.728 211.349s-5.5 1.8-7.7 9.8c-1.8 9.2 7.7 27 7.7 27s1.6-2.6 4.3-6c2.7-3.4 15.4-2.2 15.4-2.2s-5.5-6.8-7.4-12.9c-1.9-6 3.7-14.1 3.7-14.1l-16-1.6Z" stroke="#000" stroke-width="1.5" stroke-dasharray="4 4"/><path fill-rule="evenodd" clip-rule="evenodd" d="M238.427 216.449c-1.1.4-2.1 1.7-2.4 3.5 3.8.1 7.7 1.4 11.1 0l1.2-2.3c-3 0-6.1 0-9.9-1.2ZM236.328 223.749c0 .7 0 2.3.6 2.9 3.5.5 7 .6 10.5 0-.4-.8-.5-1.7 0-2.9-3.8.7-7.9.7-11.1 0ZM237.328 230.749c0 1.1.4 2.1.8 2.9 3.5.4 6.8.5 10.2-1-.4-.6-1-1.4-.9-2.4-3.4.9-6.6.7-10.1.5Z" fill="#DCDDDD"/><path d="M288.313 225.614c.9-.4 1.6-1 2.1-1.7.5-.8.8-1.7.8-2.6 0-1.2-.5-2.4-1.4-3.3-.9-.9-2.1-1.4-3.3-1.4-.9 0-1.8.3-2.6.8s-1.4 1.3-1.7 2.1c-.3.8-.4 1.8-.3 2.7.2.9.6 1.8 1.3 2.4.7.7 1.5 1.1 2.4 1.3.9.2 1.8.1 2.7-.3ZM237.104 150.873l-6.785-4.814M228.487 151.418l-6.784-4.814" stroke="#5578EC" stroke-width="1.944"/><path fill-rule="evenodd" clip-rule="evenodd" d="m113.114 64.914-2.5 3.3 3.9.4-7.5 9.8 4.7.5 7.5-9.8 3.9.4 2.5-3.3-12.5-1.3Zm19.3 16 4-13.7-6.4-.6-16 12.5 4.9.5 3.3-2.6 6.2.6-1 2.9 5 .4Zm-2.9-6.5 1.4-4.3h-.3l-4.8 3.9 3.7.4Zm10.8 4.1c-1.5-.2-3.2-.6-4.1-.9l-2.5 3.2c1 .3 2.6.7 4.4.9 5.1.5 7.8-.9 9.8-3.5 1.8-2.4 2.1-3.5-1.3-4.7-1.7-.6-2-.8-1.5-1.4.5-.6 1.3-.9 2.8-.7 1.3.1 3.2.6 3.7.9l2.3-3c-.7-.3-1.8-.7-3.9-.9-3.9-.4-7.2.3-9.6 3.4-1.8 2.3-1.6 3.3 1.5 4.3 1.8.6 1.8 1 1.4 1.5-.6.9-1 1.1-3 .9Zm26.8-8.2-7.6 4.3-.6-.1 3.6-4.7-4.7-.5-10.1 13.2 4.7.5 4.2-5.4.6.1-.1 5.9 5.6.6-.3-7.8 10.1-5.5-5.4-.6Z" fill="#D8D8D8"/><path d="M211.714 17.714c-2.9 3.7-4.7 7.5-6 11.3M214.714 20.114c-2.9 3.7-4.7 7.5-6 11.3" stroke="#0F0F0F" stroke-width="1.5"/><path d="M209.913 211.314c-3.7 3.3-8.2 5.6-13 7.4M210.714 215.414c-3.7 3.3-8.2 5.6-13 7.4M208.414 220.914c-3.2 2.3-6.8 4.1-10.7 5.5" stroke="#000" stroke-width="1.5"/></svg>