<svg
	xmlns="http://www.w3.org/2000/svg"
	data-name="Layer 1"
	viewBox="0 0 700 550"
	id="boy-waiting-with-cat"
>
	<path
		d="M227.2401,248.9952a27.8364,27.8364,0,0,0,2.06006,7.58985A33.41881,33.41881,0,0,1,227.2401,248.9952Zm81.00977,36.36988a11.3858,11.3858,0,0,0,3.55029-5.22c.56982-1.81983.68994-3.81006-.89014-4.83008-3.37012-2.17993-12.2998,4.17016-14.29,7.74023-1.98,3.56983-9.71972,13.09986-6.75,27.37989,2.98,14.29,14.08985,26,14.08985,26s.98047,1.01,2.46045,2.65991l4.35986-12.07984c-2.96-3.33007-5.37012-6.07006-6.02-6.85009C302.8402,317.85507,291.40026,299.50521,308.24987,285.36508Zm-30.27979,38.57007s-11.12012-9.12989-22.81982-14.69c-8.3003-3.93994-12.41016-10.16992-11.63037-15.09008a7.06066,7.06066,0,0,1,4.93017-5.52c3.3501-1.07007,11.29-4.78,10.47022-15.89991l-.15039-3.52a11.565,11.565,0,0,1-8.92969-4.62012c-3.57031-4.76-9.82031-7.13989-19.5-5.8l-5.06006-2.82983s-.37012-9.1001,1.66992-9.98q-.04467-1.01989-.02978-2.07006s-4.47022.99-3.72022,10.16992c0,0-1.79-1-3.37988-11.31006,0,0-7.74024,2.18018-5.55029,17.26025a17.566,17.566,0,0,1-.38965,9.12989S210.70006,282.85507,208.12,290.795c-2.58008,7.94018-7.83984,27.24023,4.66016,63.8501l6.45019,20.68994s3.16993,22.42016-1.79,26.79c0,0-7.54.88012-4.76026,6.79a3.0255,3.0255,0,0,0,.54.8,2.78129,2.78129,0,0,1-.35986-1.2,3.4852,3.4852,0,0,1,.12011-1.24023,2.407,2.407,0,0,1,.67969-1.13989,1.35425,1.35425,0,0,1,1.25-.3899,2.6534,2.6534,0,0,0-.64013.86988,6.09382,6.09382,0,0,0-.32959.94018,16.55629,16.55629,0,0,1-.72022,2.15992c.7002.78,2.2002,1.78,5.02,1.13989l.2998-.02979a4.03824,4.03824,0,0,1-.5-2.58008,3.39492,3.39492,0,0,1,.46-1.3,1.41292,1.41292,0,0,1,1.17041-.76,2.58186,2.58186,0,0,0-.46045,1.08007c-.06983.35987-.12989.73-.17969,1.11988a12.376,12.376,0,0,1-.49024,2.44018l1.68018-.15014a5.18956,5.18956,0,0,1,.04981-1.84009,3.92647,3.92647,0,0,1,.85009-1.65991,4.71535,4.71535,0,0,1,1.49024-1.16993,6.74243,6.74243,0,0,0,1.56006-.87011,7.67889,7.67889,0,0,0,2.2998-2.64991,15.29472,15.29472,0,0,0,.98975-3.45A93.799,93.799,0,0,0,229.4901,384.565c.3999-4.86987.46973-9.75977.41992-14.6499-.00976-2.45-.08984-4.89014-.20019-7.33985-.07959-2.45019-.23975-4.89013-.40967-7.34009A133.24823,133.24823,0,0,1,230.68,369.89511a136.83541,136.83541,0,0,1-.18994,14.74,85.52822,85.52822,0,0,1-2.28027,14.58008,15.9713,15.9713,0,0,1-1.17969,3.55981,8.1969,8.1969,0,0,1-2.57031,2.76025,7.51348,7.51348,0,0,1-1.68994.81983,4.35894,4.35894,0,0,0-1.44971.99,4.21684,4.21684,0,0,0-1.1001,3.33008s.33984,1.15014,2.29981,1.8a4.35784,4.35784,0,0,1-.10987-2.74,3.32982,3.32982,0,0,1,.7002-1.29,1.19747,1.19747,0,0,1,1.42968-.36988,1.34928,1.34928,0,0,0-.79.81983,7.62538,7.62538,0,0,0-.36963,1.1101,14.60518,14.60518,0,0,1-.86035,2.47,11.66567,11.66567,0,0,0,4.73.35009A2.24021,2.24021,0,0,1,226.66,411.545a3.46209,3.46209,0,0,1,.12988-1.42993,3.35271,3.35271,0,0,1,1.84034-2.0398c-.14014.46-.32032.84986-.47022,1.23-.1499.3899-.2998.75-.41992,1.11988a10.84627,10.84627,0,0,0-.48,2.40014,26.79527,26.79527,0,0,0,3.97021-.66015s4.46973-.52,4.91993-10.18994A56.45307,56.45307,0,0,1,240.16,389.025l3.12988-10.63989c.43018-3.12989,1.1001-6.17993,1.77-9.23l1.04-4.56006c.32032-1.53.72022-3.03.91016-4.58985a18.73383,18.73383,0,0,1-.14014,4.73c-.1997,1.55982-.50976,3.09986-.83984,4.6399a58.41821,58.41821,0,0,1-2.74024,9.01s.4502,8.40991,8.8501,17.40991a75.0223,75.0223,0,0,1-1.91992-14.86987,41.99875,41.99875,0,0,1,2.21-14.8899,23.91169,23.91169,0,0,1,9.21-11.82006,24.21506,24.21506,0,0,1,14.39014-3.74,26.39172,26.39172,0,0,0-7.33008,1.2,23.71842,23.71842,0,0,0-6.62988,3.17993,23.0195,23.0195,0,0,0-5.26026,5.07007,25.87841,25.87841,0,0,0-3.43994,6.46,42.85118,42.85118,0,0,0-2.37988,14.54,74.03316,74.03316,0,0,0,.2998,7.43994c.13038,1.24.2002,2.49.37012,3.72l.48,3.71s-2,3.8-8.5498,4.09009c0,0-4.02.38012-4.47022,5.44018,0,0-.21972,2.86988,6.33008,3.58985,0,0,6.91992,1.34008,11.08984-1.04l3.96.20019h1.47021a24.83926,24.83926,0,0,1-1.87988-8.28027,34.24984,34.24984,0,0,1,11.29-27.50977c10.81982-9.85009,22.25976-9.67016,25.50976-9.39013C295.18,349.36508,290.24987,334.25521,277.97008,323.93515Zm-57.97021-70.2s-.51954.8899.22021,2.98c0,0-6.3999-1.6399-.89014-11.90992,0,0,.89014,7.58985,3.57032,11.15992A10.3605,10.3605,0,0,1,219.99987,253.73519Zm25.97021,16.07007c-5.95019,1.48975-7-3.72021-7-3.72021C245.22008,265.64511,245.97008,269.80526,245.97008,269.80526ZM223.64,276.65512a66.12226,66.12226,0,0,1,10.83008-1.67993,52.76272,52.76272,0,0,1,5.48975-.14991,15.06175,15.06175,0,0,1,5.41015.93994,12.25488,12.25488,0,0,0-2.6997-.23c-.90039-.01025-1.8003.04-2.71045.06983-1.79981.09009-3.60987.23-5.41993.36011C230.92028,276.23519,227.30016,276.545,223.64,276.65512Zm3.28028,6.7a20.10187,20.10187,0,0,1,4.0498-2.84986,26.35345,26.35345,0,0,1,4.58008-1.95,24.53853,24.53853,0,0,1,4.87012-1.03027,21.02765,21.02765,0,0,1,4.9497.02c-1.63965.22021-3.25.41016-4.83008.75a39.90321,39.90321,0,0,0-4.68994,1.22021,44.26553,44.26553,0,0,0-4.54,1.69C229.82994,281.85507,228.36022,282.545,226.92028,283.35507Zm11.98-.08008c-2.3003,1.55029-4.5503,3.17017-6.91993,4.69019a34.15748,34.15748,0,0,1,6.35987-5.52,22.96338,22.96338,0,0,1,7.62988-3.56006C243.49987,280.23519,241.1903,281.71518,238.90026,283.275Z"
	></path>
	<path
		fill="#fff"
		d="M226.95517,245.979s0,.03306.004.09094c-.004-.02894-.004-.05788-.00827-.08683Z"
	></path>
	<path
		d="M242.47088 266.408a2.20975 2.20975 0 01.64282.86865 2.11443 2.11443 0 01.18384.8689 2.08349 2.08349 0 01-.1814.86865 2.19446 2.19446 0 01-.64526.86865 2.19678 2.19678 0 01-.64526-.86865 2.08331 2.08331 0 01-.18116-.86865 2.11459 2.11459 0 01.18384-.8689A2.21127 2.21127 0 01242.47088 266.408zM226.95086 245.98318q.15856 1.637.44409 3.24488c.18945 1.072.40161 2.13989.68994 3.18847a30.65237 30.65237 0 00.93677 3.12256c.34155 1.03516.781 2.0315 1.20386 3.04517a21.48761 21.48761 0 01-2.54077-6.06568A22.74886 22.74886 0 01226.95086 245.98318zM343.89446 264.87112a18.07324 18.07324 0 013.25-5.14013 15.29881 15.29881 0 014.89673-3.74781 12.848 12.848 0 012.97119-.98339 12.35479 12.35479 0 013.11646-.16089 17.38878 17.38878 0 015.897 1.6184 23.94673 23.94673 0 015.22192 3.09082 17.90506 17.90506 0 014.15479 4.49488 13.00665 13.00665 0 012.09375 5.85766 8.38436 8.38436 0 01-1.83521 6.05664l-.0122.01587a.5017.5017 0 01-.12232.11231 7.7343 7.7343 0 01-4.45312 1.36889 4.57215 4.57215 0 01-2.30322-.80419 5.43054 5.43054 0 01-1.57056-1.77271 11.61516 11.61516 0 00-1.14136-1.72461c-.45752-.52295-.95605-1.061-1.44433-1.57861-.4961-.51636-.99-1.03589-1.50123-1.53467-.25732-.24731-.51879-.491-.79321-.71387a4.90181 4.90181 0 00-.42212-.31274c-.1355-.08716-.32348-.1853-.415-.13062l-.02124.0127a.05925.05925 0 01-.06372-.09985c.231-.15625.42725-.01465.59473.03906a3.70906 3.70906 0 01.48779.2666c.31128.196.60571.41089.89673.62988.5813.43848 1.13892.90381 1.679 1.38648.54492.48486 1.07055.95923 1.60937 1.47534a9.71864 9.71864 0 011.36939 1.7793 3.7057 3.7057 0 003.08935 1.87426 6.84279 6.84279 0 003.64917-1.22168l-.13428.12793a7.59155 7.59155 0 001.67749-5.17749 12.98 12.98 0 00-1.71362-5.459 16.97214 16.97214 0 00-8.73682-7.68018 15.264 15.264 0 00-5.7644-1.11792 14.32388 14.32388 0 00-5.60986 1.23877 20.53948 20.53948 0 00-8.48682 7.96607.06092.06092 0 01-.08252.02514A.06555.06555 0 01343.89446 264.87112z"
	></path>
	<path
		d="M403.74114,262.9136a20.22987,20.22987,0,0,0-6.28906,2.21094c-1.99854,1.0083-3.929,2.14917-5.83447,3.32593-3.82129,2.34033-7.51856,4.88452-11.16236,7.498q-5.465,3.9232-10.813,8.01123c-3.5647,2.72265-7.07593,5.523-10.5691,8.32812l-.00512.00415a.53782.53782,0,0,1-.87476-.42163l.04932-12.3186.13183-12.31885.261.34424-3.209-.855c-1.06885-.29053-2.16114-.47241-3.24146-.71436-1.07959-.25244-2.18262-.35058-3.27417-.53369-1.09521-.1521-2.20142-.19458-3.30249-.27832a24.93722,24.93722,0,0,0-6.56079.58789,11.027,11.027,0,0,0-1.56885.48779,10.65241,10.65241,0,0,0-1.49219.67554,6.457,6.457,0,0,0-2.37793,2.12207l.01831-.06225q-.67932,6.4248-1.09228,12.88159c-.28442,4.3042-.4397,8.60034-.43042,12.91113-.02124,8.61743.19653,17.241.43164,25.856l-.00415-.05567a8.1434,8.1434,0,0,0,.8894,2.36548,8.52348,8.52348,0,0,0,.73291,1.06079l.40943.49878c.14966.1543.314.29468.46948.44312a10.51836,10.51836,0,0,0,4.58081,2.35888,24.47112,24.47112,0,0,0,10.63916-.43994c1.75366-.398,3.543-.87158,5.32715-1.34472l5.36768-1.3147,10.75927-2.46021c7.1709-1.62353,14.35987-3.14526,21.44654-5.0542,1.77978-.45,3.5271-1.00146,5.29248-1.49951,1.73706-.57739,3.50268-1.08471,5.20727-1.74927a39.66449,39.66449,0,0,0,9.78638-4.81909l.00879-.00634a.24783.24783,0,0,1,.34619.05444.24447.24447,0,0,1,.04761.1499l-.18921,11.60718a.0608.0608,0,0,1-.12158,0l-.189-11.60718.40234.198a38.82613,38.82613,0,0,1-9.83935,5.093c-1.71118.70141-3.47461,1.24145-5.21582,1.85376-1.76416.53149-3.51514,1.11743-5.29273,1.59985-7.08911,2.01367-14.24707,3.75293-21.418,5.37866l-10.73853,2.489-5.3418,1.325c-1.76928.47094-3.53.95556-5.36474,1.36255a25.63375,25.63375,0,0,1-11.2085.35083,11.69516,11.69516,0,0,1-5.0852-2.67945,9.20626,9.20626,0,0,1-2.8169-5.07519l-.0039-.03662-.00049-.01954c-.09009-4.31616-.10572-8.62988-.12207-12.94506-.00733-4.31519.01172-8.63062.09643-12.94678.06128-4.31543.29883-8.63941.65869-12.93677.33911-4.30273.70606-8.60083,1.196-12.89136l.002-.01757a.105.105,0,0,1,.0166-.04517c1.32178-1.98975,3.5398-2.91724,5.68042-3.50537a25.34692,25.34692,0,0,1,6.67578-.65894,52.90961,52.90961,0,0,1,6.66358.71289c1.09424.21949,2.20361.37989,3.28711.64869l3.25537.79077a.34174.34174,0,0,1,.261.32812v.01636l.13208,12.31885.04931,12.3186-.87988-.41724c3.48657-2.85034,7.05762-5.57861,10.64429-8.29248,3.59594-2.69921,7.21533-5.37085,10.92407-7.91772,3.70825-2.5459,7.46924-5.02173,11.35766-7.29468,1.95118-1.12353,3.93409-2.197,5.98047-3.14429a20.43472,20.43472,0,0,1,6.43555-2.012.0608.0608,0,0,1,.01318.12085Z"
	></path>
	<path
		d="M369.19158 247.93851l3.11133 7.36279 3.02466 7.39673-.34815-.2688a26.98877 26.98877 0 008.20069-.68823 17.51352 17.51352 0 007.2561-3.59449 14.25347 14.25347 0 004.28418-6.77832 23.71015 23.71015 0 00.81812-8.20092l-.00147-.02393.00171-.0271a3.33915 3.33915 0 012.394-2.47485 9.73106 9.73106 0 013.33692-.35157 42.82951 42.82951 0 016.57861.56812 39.858 39.858 0 0118.04321 7.82178l2.52637 2.1604a10.92178 10.92178 0 011.18872 1.15918l1.14185 1.20849a45.5462 45.5462 0 014.18139 5.16553c.65918.89185 1.16724 1.88159 1.7583 2.81836.55176.95947 1.18653 1.87695 1.66993 2.87207l1.42846 2.99756a28.01606 28.01606 0 011.34278 3.03369c.7351 2.08228 1.5271 4.15869 2.21289 6.24512l4.012 12.5188c1.35156 4.168 2.78638 8.30639 4.26221 12.4292.749 2.05688 1.52954 4.103 2.364 6.12451.41675 1.011.84546 2.01831 1.323 3.00049a11.04369 11.04369 0 001.67529 2.75439l.03.03076a.05624.05624 0 01-.07788.08106 10.57963 10.57963 0 01-1.89331-2.72876c-.53442-.96338-1.01953-1.95142-1.49292-2.9441-.95654-1.98266-1.7854-4.01879-2.623-6.05029-1.66015-4.06933-3.16382-8.198-4.61841-12.34082-1.47485-4.13672-2.81982-8.31616-4.16064-12.49585-.69409-2.07617-1.47827-4.09546-2.21167-6.14575a29.88689 29.88689 0 00-1.28711-2.99072l-1.36328-2.95972c-.46143-.98315-1.07153-1.885-1.59985-2.83228-.56665-.92358-1.052-1.90332-1.68555-2.78222l-1.91626-2.62744a21.19411 21.19411 0 00-2.06323-2.50879l-1.084-1.21338a10.57651 10.57651 0 00-1.13135-1.16675l-2.41479-2.18335a40.1193 40.1193 0 00-5.35986-3.69092 36.56082 36.56082 0 00-12.23731-4.39087 38.55335 38.55335 0 00-6.52051-.4895 8.73962 8.73962 0 00-3.16357.38452 2.81043 2.81043 0 00-1.93652 2.04639V243.118a24.35533 24.35533 0 01-.55054 8.50708 14.64968 14.64968 0 01-4.47559 7.332 17.63508 17.63508 0 01-7.72583 3.75952 26.31623 26.31623 0 01-8.53442.55982.41826.41826 0 01-.34839-.26905l-2.77075-7.49536-2.68408-7.52929a.06093.06093 0 01.11352-.04419zM356.65179 245.33255a59.00383 59.00383 0 00-12.41724 5.68823 56.80151 56.80151 0 00-10.78149 8.28076 47.45379 47.45379 0 00-8.26319 10.71094c-2.22119 3.98047-4.47216 7.99756-6.80346 11.928-2.32911 3.93457-4.73829 7.82666-6.74512 11.89233a31.19041 31.19041 0 00-2.40894 6.283 11.22608 11.22608 0 00.1355 6.46875 13.102 13.102 0 003.94556 5.25415 26.88508 26.88508 0 005.62671 3.7312 43.77261 43.77261 0 0013.0122 4.0083 40.3004 40.3004 0 01-6.76416-1.19116 39.709 39.709 0 01-6.50732-2.28 27.23065 27.23065 0 01-5.86865-3.68579 22.782 22.782 0 01-2.49536-2.45117 11.06948 11.06948 0 01-1.8252-3.05713 11.73781 11.73781 0 01-.28369-7.03711 32.21808 32.21808 0 012.43677-6.52588c2.01318-4.15771 4.394-8.07715 6.6958-12.02832 2.36743-3.91992 4.62134-7.86792 6.8894-11.85644a45.35006 45.35006 0 018.57666-10.83423A56.61236 56.61236 0 01356.65179 245.33255z"
	></path>
	<path
		d="M315.47918 296.57913a17.59647 17.59647 0 013.52881-2.63135 22.002 22.002 0 014.03052-1.834 17.70538 17.70538 0 014.38012-.83325 10.94033 10.94033 0 014.37378.697 23.28637 23.28637 0 00-4.2771.24731 31.93015 31.93015 0 00-4.09692 1.04395c-1.34693.43481-2.66455.97046-3.98438 1.52344C318.11907 295.35965 316.80975 295.9573 315.47918 296.57913zM413.59222 308.84329c1.60376-1.26465 3.10327-2.61328 4.585-3.97925q2.20386-2.06835 4.30249-4.23706c1.40356-1.44336 2.7644-2.92871 4.12085-4.42627 1.35791-1.49756 2.676-3.03271 4.074-4.52929a42.09225 42.09225 0 01-3.34131 5.1333 51.10033 51.10033 0 01-3.98 4.66821 46.016 46.016 0 01-4.563 4.11157A26.065 26.065 0 01413.59222 308.84329zM408.33636 260.88187a18.85625 18.85625 0 016.69043-.23633 18.33556 18.33556 0 016.43823 2.13257 18.9952 18.9952 0 012.81079 1.95776 16.81042 16.81042 0 012.27368 2.54834 9.97183 9.97183 0 01.94483 1.41016l.7727 1.50537a10.13158 10.13158 0 01.59229 1.57348c.18115.52906.34692 1.06079.50122 1.59156a26.31817 26.31817 0 00-3.55347-5.489 19.91713 19.91713 0 00-2.27685-2.26172 19.29919 19.29919 0 00-2.65992-1.77514 21.79691 21.79691 0 00-6.00976-2.26221A30.16838 30.16838 0 00408.33636 260.88187zM339.9367 366.8577l-6.22217 9.48266q-3.1095 4.74281-6.2793 9.4436a.5082.5082 0 01-.86914-.04223l-.01782-.03369a34.72754 34.72754 0 00-5.52026-7.373 56.17235 56.17235 0 00-6.98389-6.106c-1.28369-.86767-2.52905-1.792-3.87866-2.55908-.66821-.39233-1.31494-.8208-2-1.18359l-2.05908-1.0813c-.67823-.37622-1.38208-.70142-2.09351-1.01148l-2.12134-.95507c-1.4331-.59253-2.8977-1.11109-4.344-1.6709l-.01733-.00659a.8118.8118 0 01-.47242-1.02344c1.4336-4.10083 2.9563-8.16968 4.43579-12.25415 1.48633-4.082 2.971-8.16455 4.51-12.22754l9.14209-24.41113a.35925.35925 0 01.46241-.21045.41973.41973 0 01.05786.02783 49.16746 49.16746 0 007.84912 3.74707 28.44333 28.44333 0 008.44629 1.88428.28161.28161 0 01.26977.27685l.00049.021a6.49646 6.49646 0 00.80957 2.81982 9.825 9.825 0 001.8313 2.38965 14.50446 14.50446 0 002.39941 1.86963l1.33155.7561 1.38842.655.00635.00318a.33664.33664 0 01.19287.30053l.47266 47.24488.11694 23.62255c.05518 7.874.04932 15.7483.02564 23.62232v.00537a.94987.94987 0 01-.11621.44922 5.81205 5.81205 0 01-2.02442 2.06982 9.66753 9.66753 0 01-2.469 1.092 21.67976 21.67976 0 01-5.054.80054 60.0282 60.0282 0 01-9.94921-.42578 176.59551 176.59551 0 01-19.37647-3.646c-6.38574-1.50756-12.69849-3.28051-18.97241-5.1643q-9.41565-2.81288-18.67114-6.11353l-.00562-.002a.16562.16562 0 01-.07373-.05249 15.56335 15.56335 0 01-2.20776-3.77637.09125.09125 0 01.16723-.073 15.29568 15.29568 0 002.31226 3.62354l-.0791-.0542c6.24389 1.94336 12.53955 3.72436 18.84131 5.45654q9.46288 2.56677 19.02124 4.70606a175.08005 175.08005 0 0019.2434 3.2937 59.95543 59.95543 0 009.64087.37353 19.89052 19.89052 0 004.615-.7395 5.57162 5.57162 0 003.38135-2.27734l-.11621.4541c-.02368-7.874-.02954-15.74829.02563-23.62232l.11719-23.62255.47266-47.24488.19873.30323-1.42432-.6858-1.37134-.793a15.1413 15.1413 0 01-2.49072-1.9729 10.4267 10.4267 0 01-1.92114-2.55176 6.98118 6.98118 0 01-.85181-3.126l.26978.29761a29.30178 29.30178 0 01-4.3916-.62036 39.23838 39.23838 0 01-4.24268-1.2461 49.78486 49.78486 0 01-8.00976-3.72216l.52-.18238-8.52392 24.63379c-1.40552 4.11109-2.86548 8.20239-4.32373 12.29468-1.46533 4.08935-2.88745 8.19458-4.39819 12.26782l-.48975-1.02978c1.47461.58642 2.96558 1.13232 4.425 1.75341l2.16162.99927c.72412.32471 1.44092.665 2.13257 1.05713l2.09765 1.12915c.69751.37891 1.35767.82446 2.03809 1.23364 1.37353.8003 2.64429 1.76075 3.95019 2.6648a50.50106 50.50106 0 017.06519 6.39014 35.64536 35.64536 0 015.52905 7.80029l-.88647-.07593q3.26367-4.63659 6.5686-9.24463l6.626-9.20532a.09131.09131 0 01.15039.10352z"
	></path>
	<path
		d="M317.37713 390.16629a26.61889 26.61889 0 015.67114-1.66577 28.11726 28.11726 0 015.927-.50318 19.56964 19.56964 0 015.907.98975 11.818 11.818 0 014.97924 3.22314 16.84444 16.84444 0 00-5.25024-2.31323c-.46777-.09448-.93213-.19311-1.39307-.30249l-1.4165-.18872c-.46851-.08008-.94849-.095-1.42407-.1311-.47608-.03516-.95166-.07276-1.43213-.06177a46.10185 46.10185 0 00-5.76636.22437C321.25237 389.62234 319.32269 389.865 317.37713 390.16629zM299.94061 363.794c-2.94751 6.7085-6.22193 13.24732-9.57642 19.74439-3.38721 6.48022-6.8562 12.91772-10.65527 19.18384 2.94482-6.71 6.21948-13.24854 9.57641-19.74439C292.67474 376.49881 296.14422 370.06131 299.94061 363.794z"
	></path>
	<path
		d="M304.383 409.14627c2.86865-4.9978 6.0354-9.79 9.28393-14.52637 3.27808-4.71557 6.62818-9.3811 10.28638-13.83423-2.866 4.99976-6.03589 9.79-9.28589 14.52491C311.38714 400.0242 308.03948 404.69168 304.383 409.14627zM295.48033 434.33505c4.11963-.24 8.2295-.54 12.33985-.85986a9.72573 9.72573 0 01-2.3501 4.58007s-67.2998 6.56983-77.37012 1.30982c0 0-3.50976-8.5398 2.84034-11.59986 2.10986-1.02 6.81982-2.89013 12.61962-5.34008a19.77865 19.77865 0 015.06006 1.55 17.89511 17.89511 0 014.39991 2.85986 17.00647 17.00647 0 011.81 1.89014 16.30387 16.30387 0 011.41016 2.18994 17.92771 17.92771 0 011.73 4.89013l.01025.00977a.41988.41988 0 00.42969.33008l12.35987-.5 12.36035-.6001C287.24987 434.85507 291.36022 434.58505 295.48033 434.33505z"
	></path>
	<path
		d="M304.38024,409.14511c-20.22022,10-24.67041-6.41992-24.67041-6.41992a63.832,63.832,0,0,1-10.03955,7.06982,5.901,5.901,0,0,1,2.35986.61011,7.77171,7.77171,0,0,1,2.10986,1.49,7.86882,7.86882,0,0,1,1.5,2.08008,6.98706,6.98706,0,0,1,.71,2.43994c-.48974-.7-.89013-1.39991-1.37988-2.03a13.84256,13.84256,0,0,0-1.54-1.78,13.0885,13.0885,0,0,0-1.79-1.52,17.63162,17.63162,0,0,0-2.02-1.25977q-2.43017,1.43994-5.02978,2.81983a5.78491,5.78491,0,0,1,2.23.60009,7.72466,7.72466,0,0,1,3.6001,3.56983,6.79724,6.79724,0,0,1,.71,2.44018c-.48-.7102-.89014-1.40014-1.37012-2.03a14.83649,14.83649,0,0,0-1.54-1.79,13.924,13.924,0,0,0-1.7998-1.52,15.83263,15.83263,0,0,0-1.96045-1.22c-1.76953.93994-3.57959,1.8601-5.39991,2.75a5.87522,5.87522,0,0,1,2.46.6101,7.76316,7.76316,0,0,1,3.61035,3.57984,6.95577,6.95577,0,0,1,.71,2.42993c-.48-.7-.89014-1.3999-1.38037-2.02979a13.75432,13.75432,0,0,0-1.52979-1.78,13.17122,13.17122,0,0,0-1.7998-1.52,16.88777,16.88777,0,0,0-2.07032-1.29c-5.35009,2.6101-10.79,4.99-15.5,6.98a18.40816,18.40816,0,0,1,5.18995,1.26,16.89118,16.89118,0,0,1,4.62011,2.74,16.51891,16.51891,0,0,1,1.93994,1.90014,17.178,17.178,0,0,1,1.5503,2.23975,16.94389,16.94389,0,0,1,1.84961,4.71l12.0205-.60986,12.35987-.51c4.11963-.18994,8.23974-.3,12.35986-.41993,4.12012-.13012,8.25-.2,12.37012-.26C310.07994,424.275,304.38024,409.14511,304.38024,409.14511Zm-9.34034,18.18994c-3.86962,0-3.85986-6,0-6C298.91,421.33505,298.90026,427.33505,295.0399,427.33505Z"
	></path>
	<path
		fill="#fff"
		d="M264.57018 412.64511c-.04.02-.07031.03-.11035.05-.03955-.02-.06983-.04-.10987-.06006A1.62175 1.62175 0 01264.57018 412.64511zM269.67028 409.795c-.02.01025-.03028.02-.0503.03027-.02-.01025-.02978-.02-.0498-.03027z"
	></path>
	<path
		d="M339.86149,328.38643s-7.88408,3.6711,25.40428,7.17514L476.811,317.74938l-17.52019-6.71607Z"
	></path>
	<path
		d="M339.95281,328.3865c.18091,8.57935.33911,17.1587.41773,25.738.093,8.57935.20092,17.15869.21582,25.738.02417,8.57934.10644,17.15869.08252,25.738-.02881,8.5791-.04395,17.15844-.167,25.73779l-.42187-.60156,18.02881,6.77734c6.002,2.28052,12.043,4.45288,18.0625,6.68457l-.16309-.01123c4.97266-1.011,9.929-2.09888,14.89014-3.16357l14.87451-3.23633,29.72754-6.57422c9.90869-2.19507,19.81812-4.385,29.74145-6.509,9.9231-2.12646,19.83179-4.32055,29.76636-6.3916l-.75561,1.03418q-1.30444-12.847-2.91455-25.68066c-1.064-8.55054-2.13233-17.10156-3.3855-25.62525-1.26245-8.521-2.57471-17.03784-4.21631-25.49047-.82959-4.22388-1.71777-8.437-2.76465-12.61036a57.231,57.231,0,0,0-4.23926-12.14477l-.00293-.00513a.09129.09129,0,0,1,.1604-.08716,57.56337,57.56337,0,0,1,4.68506,12.07251c1.2107,4.15015,2.21118,8.35523,3.13379,12.574,1.84863,8.438,3.38257,16.93823,4.739,25.46265,1.35766,8.52441,2.62085,17.06347,3.71435,25.624q1.63514,12.84375,2.99976,25.71948a.95478.95478,0,0,1-.74414,1.03174l-.01172.00244c-9.92163,2.13379-19.86914,4.144-29.80225,6.22217-9.93286,2.08032-19.87939,4.09521-29.82715,6.10473l-29.84082,6.03931-14.90967,3.07056c-4.967,1.03735-9.939,2.05176-14.89428,3.14331a.30808.30808,0,0,1-.16358-.01148c-6.0498-2.14819-12.07812-4.35571-18.14575-6.45532l-18.1792-6.36279a.62993.62993,0,0,1-.42187-.58423l-.00025-.01782c-.123-8.57935-.13818-17.15869-.16723-25.73779-.02368-8.57935.05859-17.1587.08276-25.738.01489-8.57935.1228-17.15869.21582-25.738.07861-8.57934.23682-17.15869.41773-25.738a.09133.09133,0,0,1,.18261,0Z"
	></path>
	<path
		d="M365.2658 335.56155c.51074 4.395.94385 8.79566 1.418 13.19287l1.29126 13.20093c.84228 8.80518 1.59839 17.60156 2.37964 26.42822q.94556 13.24366 1.52588 26.4983l.49121 13.259c.10571 4.42187.24243 8.84228.2832 13.26587l-1.709-26.47534c-.57251-8.82227-1.07886-17.64893-1.803-26.45435l-2.09619-26.44116-.95386-13.23291C365.81854 344.3887 365.50335 339.97781 365.2658 335.56155zM343.37371 429.011a6.51017 6.51017 0 003.46607-.87915 6.75376 6.75376 0 002.43847-2.54029 14.37018 14.37018 0 001.51709-6.96924c.19727-4.93335.32886-9.86938.61475-14.80053l.97265-14.78589q.43506-7.3938.635-14.79834a.27584.27584 0 01.55079-.01343l.001.01392 1.16089 16.31933 1.0979 16.31812.5481 8.15307c.09082 1.35791.18969 2.71509.31054 4.06592.06055.67432.125 1.35108.21241 2.01148.03857.32641.09545.67212.155.93579l.03858.15259.11743.248c.08228.167.14575.32666.21362.488a38.05392 38.05392 0 001.64014 3.69751 22.24505 22.24505 0 002.19312 3.37109 32.7079 32.7079 0 005.79589 5.67017.06078.06078 0 01.012.0852.06179.06179 0 01-.08277.01368 30.51478 30.51478 0 01-6.21557-5.36817 24.91429 24.91429 0 01-4.23584-7.082c-.06836-.15088-.1355-.3064-.2085-.44287l-.10693-.21143-.1211-.333a9.79821 9.79821 0 01-.21533-1.07349c-.11108-.68872-.19482-1.36768-.27563-2.04932-.16089-1.36157-.29859-2.72094-.42847-4.08081q-.36217-4.08178-.64526-8.16406c-.37769-5.44434-.62769-10.89453-.905-16.34229-.262-5.449-.43262-10.90185-.60694-16.35449l.55176.00049q-.47937 7.38831-.72388 14.78955l-.38647 14.80225c-.16724 4.93164-.48853 9.8584-.74414 14.7876a14.83024 14.83024 0 01-1.90552 7.26831 6.67674 6.67674 0 01-6.45215 3.21728.06073.06073 0 01.01-.12085zM397.33767 330.44014s18.5483-4.24392 18.92593 37.001c.04176 4.561.20827 10.77027 1.27074 15.206 2.18212 9.11017 6.78127 19.56589 12.62571 10.7067a18.11625 18.11625 0 002.88581-10.22073c-.05925-4.86252-1.22832-12.12064-6.75143-17.78716-9.14828-9.38582-6.78907-12.26414-5.91306-17.52019s3.02512-8.79733-2.847-14.23516l-5.87215-5.43783 10.4712-1.6721c5.76706 1.72316 10.58511 8.789 10.29311 15.213-.04727 1.03984-.12513 2.10263-.22246 3.15369a28.46012 28.46012 0 004.70271 18.5058c3.85626 5.73537 8.07589 13.89512 8.07589 22.141 0 15.18416-16.64418 35.91639-31.39035 19.49121s-9.1981-19.49121-8.61409-43.43547-23.64238-28.55445-23.64238-28.55445zM357.47088 199.044a61.37311 61.37311 0 00-4.88159 14.42969 24.657 24.657 0 00-.282 3.78491c-.05395 1.29517-.15063 2.5896-.32006 3.87745a9.9826 9.9826 0 01-1.11011 3.75927 9.20658 9.20658 0 01-1.29273 1.47217 2.476 2.476 0 00-.64892 1.55078 1.27321 1.27321 0 00.8147 1.17774c.22192.11108.58007.22851.875.36474a2.3845 2.3845 0 01.96313.68775 2.50342 2.50342 0 01.40088 1.12256c.05493.34033.08887.6582.12891.979.07934.63672.14282 1.27026.23657 1.897a27.9097 27.9097 0 001.92236 7.25073c.93384 2.26075 2.61841 4.26221 5.104 4.35767 2.55151.23462 5.10644.491 7.67333.83032l.00635.001a.06069.06069 0 01-.00635.12085c-2.57031.06177-5.15234.04028-7.73779-.00293a5.46575 5.46575 0 01-1.01489-.103l-.52564-.085a4.19478 4.19478 0 01-.50048-.17969 5.75 5.75 0 01-1.81763-1.07617 9.50942 9.50942 0 01-2.36206-3.32519 24.99307 24.99307 0 01-1.877-7.647q-.10731-.973-.16968-1.93969a4.78221 4.78221 0 00-.24488-1.63721 1.526 1.526 0 00-.58105-.43311c-.27783-.15625-.529-.25439-.87109-.45385a2.28993 2.28993 0 01-.82959-.79859 1.95483 1.95483 0 01-.25293-1.13061 3.05857 3.05857 0 01.92871-1.88184c.24414-.25757.52221-.44043.7334-.64526a4.232 4.232 0 00.58471-.70362 8.19373 8.19373 0 001.07886-3.57568 24.61677 24.61677 0 00.03467-3.82617 23.38532 23.38532 0 01-.04517-3.918 27.28833 27.28833 0 012.10352-7.5293 41.25454 41.25454 0 013.677-6.83252.06092.06092 0 01.08472-.01611A.063.063 0 01357.47088 199.044z"
	></path>
	<path
		d="M348.71209,216.38357c.74731,1.79,1.37109,3.62378,2.061,5.43433.6084,1.83936,1.28223,3.65552,1.832,5.51563a.10607.10607,0,0,1-.15235.12353l-.0769-.042a7.91716,7.91716,0,0,1-2.50562-2.19263,9.563,9.563,0,0,1-1.38916-2.5896,9.7353,9.7353,0,0,1-.552-2.88745,8.00536,8.00536,0,0,1,.55371-3.28027l.03272-.08057a.10621.10621,0,0,1,.19653-.001Z"
	></path>
	<path
		d="M377.56707,223.135a.24424.24424,0,0,1-.0376-.00293.30362.30362,0,0,1-.26465-.33887,1.26851,1.26851,0,0,0-.35546-1c-3.49317-4.10156-28.0752-5.05566-28.32325-5.06543a.30447.30447,0,0,1-.293-.31543.27748.27748,0,0,1,.31543-.292c1.023.03711,25.09913.97559,28.76416,5.27832a1.86463,1.86463,0,0,1,.49561,1.46875A.30439.30439,0,0,1,377.56707,223.135Z"
	></path>
	<path
		d="M375.67754,232.53213c6.35107,7.33658,20.17556,10.61044,20.17556,10.61044,6.24157-2.847,6.35107-27.92281,4.27055-42.26746s-19.60072-10.84062-24.142-9.1981-18.15578,3.17553-18.15578,3.17553,3.20581,27.3753,9.99489,28.79881c0,0,5.93473-6.16476,7.936-1.33033a5.75286,5.75286,0,0,1,.38375,2.5492Z"
	></path>
	<path
		d="M372.69158 236.07547a6.029 6.029 0 01-2.91406-.93652.304.304 0 11.30273-.52735c1.5293.875 2.76905 1.07813 3.68653.60742 1.42334-.73632 1.64551-2.88867 1.64746-2.91015a.2977.2977 0 01.33154-.27344.30417.30417 0 01.27393.332c-.00977.10156-.25879 2.50488-1.97364 3.3916A2.908 2.908 0 01372.69158 236.07547zM352.0097 235.77078a3.05338 3.05338 0 001.155 1.47656 2.19859 2.19859 0 001.71582.1814 16.192 16.192 0 003.52319-1.658 6.96991 6.96991 0 01-3.39087 2.25147 2.42474 2.42474 0 01-2.1206-.38843A2.48459 2.48459 0 01352.0097 235.77078zM353.87764 223.35935a1.82611 1.82611 0 000-3.65 1.82611 1.82611 0 000 3.65zM286.13291 404.40132a1.82611 1.82611 0 000-3.65 1.82611 1.82611 0 000 3.65zM303.4341 396.95524a1.82611 1.82611 0 000-3.65 1.82611 1.82611 0 000 3.65zM296.645 410.53339a1.82611 1.82611 0 000-3.65 1.82611 1.82611 0 000 3.65zM293.36 387.10013a1.82611 1.82611 0 000-3.65 1.82611 1.82611 0 000 3.65zM312.8512 382.93909a1.82611 1.82611 0 000-3.65 1.82611 1.82611 0 000 3.65zM301.46307 373.084a1.82611 1.82611 0 000-3.65 1.82611 1.82611 0 000 3.65zM302.33908 385.56712a1.82611 1.82611 0 000-3.65 1.82611 1.82611 0 000 3.65zM293.798 398.05025a1.82611 1.82611 0 000-3.65 1.82611 1.82611 0 000 3.65zM310.04666 400.93375l-2.00741 2.914a1.84213 1.84213 0 01.65082-3.53449A1.64577 1.64577 0 01310.04666 400.93375zM316.7081 391.28549l-2.05018 2.9687a1.85017 1.85017 0 011.25945-3.139A1.78174 1.78174 0 01316.7081 391.28549zM344.24154 342.35065a1.82611 1.82611 0 000-3.65 1.82611 1.82611 0 000 3.65zM352.70963 348.19071a1.82611 1.82611 0 000-3.65 1.82611 1.82611 0 000 3.65zM361.46973 341.76664a1.82611 1.82611 0 000-3.65 1.82611 1.82611 0 000 3.65zM345.11755 358.99483a1.82611 1.82611 0 000-3.65 1.82611 1.82611 0 000 3.65zM361.46973 357.82682a1.82611 1.82611 0 000-3.65 1.82611 1.82611 0 000 3.65zM353.29364 366.29491a1.82611 1.82611 0 000-3.65 1.82611 1.82611 0 000 3.65zM345.70156 375.055a1.82611 1.82611 0 000-3.65 1.82611 1.82611 0 000 3.65zM362.34574 375.639a1.82611 1.82611 0 000-3.65 1.82611 1.82611 0 000 3.65zM346.57756 390.23917a1.82611 1.82611 0 000-3.65 1.82611 1.82611 0 000 3.65zM362.34574 390.82317a1.82611 1.82611 0 000-3.65 1.82611 1.82611 0 000 3.65zM345.99356 403.67131a1.82611 1.82611 0 000-3.65 1.82611 1.82611 0 000 3.65zM362.34574 405.13133a1.82611 1.82611 0 000-3.65 1.82611 1.82611 0 000 3.65zM346.28556 418.56348a1.82611 1.82611 0 000-3.65 1.82611 1.82611 0 000 3.65zM362.63774 419.14748a1.82611 1.82611 0 000-3.65 1.82611 1.82611 0 000 3.65zM354.16965 429.6596a1.82611 1.82611 0 000-3.65 1.82611 1.82611 0 000 3.65zM366.43378 431.99562a1.82611 1.82611 0 000-3.65 1.82611 1.82611 0 000 3.65zM371.10583 347.3147a1.82611 1.82611 0 000-3.65 1.82611 1.82611 0 000 3.65zM378.69791 340.59863a1.82611 1.82611 0 000-3.65 1.82611 1.82611 0 000 3.65zM388.042 345.27068a1.82611 1.82611 0 000-3.65 1.82611 1.82611 0 000 3.65zM381.618 352.86276a1.82611 1.82611 0 000-3.65 1.82611 1.82611 0 000 3.65zM376.06989 364.54289a1.82611 1.82611 0 000-3.65 1.82611 1.82611 0 000 3.65zM392.71407 361.03885a1.82611 1.82611 0 000-3.65 1.82611 1.82611 0 000 3.65zM386.29 370.091a1.82611 1.82611 0 000-3.65 1.82611 1.82611 0 000 3.65zM378.11391 379.14305a1.82611 1.82611 0 000-3.65 1.82611 1.82611 0 000 3.65zM395.3421 375.347a1.82611 1.82611 0 000-3.65 1.82611 1.82611 0 000 3.65zM388.626 385.85912a1.82611 1.82611 0 000-3.65 1.82611 1.82611 0 000 3.65zM379.28192 394.32721a1.82611 1.82611 0 000-3.65 1.82611 1.82611 0 000 3.65zM392.13006 402.2113a1.82611 1.82611 0 000-3.65 1.82611 1.82611 0 000 3.65zM398.26213 390.82317a1.82611 1.82611 0 000-3.65 1.82611 1.82611 0 000 3.65zM381.618 408.92737a1.82611 1.82611 0 000-3.65 1.82611 1.82611 0 000 3.65zM395.05009 418.27147a1.82611 1.82611 0 000-3.65 1.82611 1.82611 0 000 3.65zM403.81019 404.83933a1.82611 1.82611 0 000-3.65 1.82611 1.82611 0 000 3.65zM383.078 427.32357a1.82611 1.82611 0 000-3.65 1.82611 1.82611 0 000 3.65zM397.38612 436.08367a1.82611 1.82611 0 000-3.65 1.82611 1.82611 0 000 3.65zM385.122 441.92373a1.82611 1.82611 0 000-3.65 1.82611 1.82611 0 000 3.65zM408.48224 426.44756a1.82611 1.82611 0 000-3.65 1.82611 1.82611 0 000 3.65zM417.53434 417.68747a1.82611 1.82611 0 000-3.65 1.82611 1.82611 0 000 3.65zM422.49839 432.87163a1.82611 1.82611 0 000-3.65 1.82611 1.82611 0 000 3.65zM430.09047 422.35952a1.82611 1.82611 0 000-3.65 1.82611 1.82611 0 000 3.65zM440.01858 411.5554a1.82611 1.82611 0 000-3.65 1.82611 1.82611 0 000 3.65zM444.10663 426.73957a1.82611 1.82611 0 000-3.65 1.82611 1.82611 0 000 3.65zM451.69871 415.93545a1.82611 1.82611 0 000-3.65 1.82611 1.82611 0 000 3.65zM459.5828 405.42333a1.82611 1.82611 0 000-3.65 1.82611 1.82611 0 000 3.65zM464.54685 420.6075a1.82611 1.82611 0 000-3.65 1.82611 1.82611 0 000 3.65zM469.5109 410.67939a1.82611 1.82611 0 000-3.65 1.82611 1.82611 0 000 3.65zM478.855 401.33529a1.82611 1.82611 0 000-3.65 1.82611 1.82611 0 000 3.65zM484.11106 418.27147a1.82611 1.82611 0 000-3.65 1.82611 1.82611 0 000 3.65zM489.07512 407.46736a1.82611 1.82611 0 000-3.65 1.82611 1.82611 0 000 3.65zM465.71486 395.78723a1.82611 1.82611 0 000-3.65 1.82611 1.82611 0 000 3.65zM447.02666 397.83125a1.82611 1.82611 0 000-3.65 1.82611 1.82611 0 000 3.65zM454.32674 386.73513a1.82611 1.82611 0 000-3.65 1.82611 1.82611 0 000 3.65zM474.475 384.69111a1.82611 1.82611 0 000-3.65 1.82611 1.82611 0 000 3.65zM486.44709 390.23917a1.82611 1.82611 0 000-3.65 1.82611 1.82611 0 000 3.65zM480.023 371.843a1.82611 1.82611 0 000-3.65 1.82611 1.82611 0 000 3.65zM462.50283 373.887a1.82611 1.82611 0 000-3.65 1.82611 1.82611 0 000 3.65zM447.61067 374.179a1.82611 1.82611 0 000-3.65 1.82611 1.82611 0 000 3.65zM451.99071 362.49887a1.82611 1.82611 0 000-3.65 1.82611 1.82611 0 000 3.65zM468.63489 360.45484a1.82611 1.82611 0 000-3.65 1.82611 1.82611 0 000 3.65zM435.93054 362.79087a1.82611 1.82611 0 000-3.65 1.82611 1.82611 0 000 3.65zM444.10663 352.27875a1.82611 1.82611 0 000-3.65 1.82611 1.82611 0 000 3.65zM459.29079 352.57076a1.82611 1.82611 0 000-3.65 1.82611 1.82611 0 000 3.65zM475.059 349.65073a1.82611 1.82611 0 000-3.65 1.82611 1.82611 0 000 3.65zM484.98707 357.53481a1.82611 1.82611 0 000-3.65 1.82611 1.82611 0 000 3.65zM488.78311 378.851a1.82611 1.82611 0 000-3.65 1.82611 1.82611 0 000 3.65zM465.42286 341.18263a1.82611 1.82611 0 000-3.65 1.82611 1.82611 0 000 3.65zM450.23869 340.89063a1.82611 1.82611 0 000-3.65 1.82611 1.82611 0 000 3.65zM433.01051 344.10267a1.82611 1.82611 0 000-3.65 1.82611 1.82611 0 000 3.65zM440.01858 335.05057a1.82611 1.82611 0 000-3.65 1.82611 1.82611 0 000 3.65zM456.37076 331.25453a1.82611 1.82611 0 000-3.65 1.82611 1.82611 0 000 3.65zM472.43094 328.33449a1.82611 1.82611 0 000-3.65 1.82611 1.82611 0 000 3.65zM477.103 334.75856a1.82611 1.82611 0 000-3.65 1.82611 1.82611 0 000 3.65zM482.067 340.89063a1.82611 1.82611 0 000-3.65 1.82611 1.82611 0 000 3.65zM446.15065 325.41446a1.82611 1.82611 0 000-3.65 1.82611 1.82611 0 000 3.65zM428.04645 327.75049a1.82611 1.82611 0 000-3.65 1.82611 1.82611 0 000 3.65zM462.79483 321.91042a1.82611 1.82611 0 000-3.65 1.82611 1.82611 0 000 3.65zM475.643 319.8664a1.82611 1.82611 0 000-3.65 1.82611 1.82611 0 000 3.65zM410.23426 334.46656a1.82611 1.82611 0 000-3.65 1.82611 1.82611 0 000 3.65zM419.28636 340.89063a1.82611 1.82611 0 000-3.65 1.82611 1.82611 0 000 3.65zM414.90631 350.52674a1.82611 1.82611 0 000-3.65 1.82611 1.82611 0 000 3.65zM420.45437 361.03885a1.82611 1.82611 0 000-3.65 1.82611 1.82611 0 000 3.65zM416.65833 369.50694a1.82611 1.82611 0 000-3.65 1.82611 1.82611 0 000 3.65zM400.59815 350.81874a1.82611 1.82611 0 000-3.65 1.82611 1.82611 0 000 3.65zM403.51819 365.4189a1.82611 1.82611 0 000-3.65 1.82611 1.82611 0 000 3.65zM427.75445 372.719a1.82611 1.82611 0 000-3.65 1.82611 1.82611 0 000 3.65zM418.99435 380.89507a1.82611 1.82611 0 000-3.65 1.82611 1.82611 0 000 3.65zM431.25849 383.8151a1.82611 1.82611 0 000-3.65 1.82611 1.82611 0 000 3.65zM423.95841 389.36316a1.82611 1.82611 0 000-3.65 1.82611 1.82611 0 000 3.65zM359.68694 179.6741a2.581 2.581 0 01-.7832 1.79053 6.276 6.276 0 01-1.63135 1.17529 11.95166 11.95166 0 01-3.7771 1.19654 5.20809 5.20809 0 01-3.876-.98169 4.28015 4.28015 0 01-1.73706-3.54712 1.82287 1.82287 0 01.5288-1.02271 3.43933 3.43933 0 01.88843-.605c.6145-.30933 1.22486-.5332 1.8147-.77075a11.75927 11.75927 0 001.67407-.81519c.26172-.15649.50733-.32861.75293-.50122a7.66691 7.66691 0 01.90674-.5603 3.35186 3.35186 0 012.19946-.32471 3.09354 3.09354 0 011.79907 1.21216A6.877 6.877 0 01359.68694 179.6741zm-.09985 0a4.843 4.843 0 00-1.624-3.30737 2.52047 2.52047 0 00-3.03907-.37988c-.25561.11938-.489.30639-.7434.459a7.17365 7.17365 0 01-.87671.55371 12.69612 12.69612 0 01-1.85889.79028c-.62012.22266-1.248.38892-1.81519.61158-.56665.22729-1.06958.49536-1.2102 1.01123a3.26167 3.26167 0 001.39111 3.18042 4.34458 4.34458 0 003.54273.42309c1.20385-.30542 2.47143-.61914 3.67724-.95556a5.65559 5.65559 0 001.698-.79A1.9863 1.9863 0 00359.58709 179.6741zM350.59417 159.22928a4.14573 4.14573 0 01-1.35449 2.969 10.38534 10.38534 0 01-2.78955 1.85913 24.59447 24.59447 0 01-6.37085 1.94531 8.51979 8.51979 0 01-6.457-1.47045 6.85629 6.85629 0 01-2.82544-5.88794 2.8688 2.8688 0 01.8667-1.59253 5.795 5.795 0 011.46484-.95313c1.02539-.49463 2.06665-.854 3.07764-1.25171a20.36288 20.36288 0 002.90307-1.37378c.45948-.26489.89014-.56591 1.31983-.8684a13.19512 13.19512 0 011.48071-.9148 5.39244 5.39244 0 013.50464-.553 5.16931 5.16931 0 012.94287 1.88159 9.3945 9.3945 0 011.60547 2.96045A10.76107 10.76107 0 01350.59417 159.22928zm-.1001 0a8.128 8.128 0 00-.78906-3.146 8.54724 8.54724 0 00-1.83154-2.61816 4.96346 4.96346 0 00-2.6316-1.38062 4.58722 4.58722 0 00-2.856.55982 14.25133 14.25133 0 00-1.31738.81347 13.025 13.025 0 01-1.44385.9209 21.29973 21.29973 0 01-3.08814 1.34888c-1.04126.38257-2.09985.68481-3.07788 1.09253a6.06625 6.06625 0 00-1.344.74365 2.24624 2.24624 0 00-.78052 1.18555 5.88654 5.88654 0 002.47949 5.52124 7.65555 7.65555 0 006.12378.91186c2.08594-.48413 4.22876-1.032 6.27075-1.70434a9.74955 9.74955 0 002.85645-1.47388A3.55086 3.55086 0 00350.49407 159.22928zM346.13641 131.66263a6.25266 6.25266 0 01.4707 2.46118 4.6659 4.6659 0 01-.76367 2.38891A11.1526 11.1526 0 01342.1 139.82913a55.96343 55.96343 0 01-9.1648 4.06616c-3.13061 1.16651-6.30175 2.19556-9.42456 3.34009-1.55932.57739-3.12036 1.14526-4.66088 1.76074-1.55518.60962-3.12842 1.21753-4.74 1.6958a31.89089 31.89089 0 01-9.95214 1.51612 14.11459 14.11459 0 01-9.33545-3.38623 15.06188 15.06188 0 01-4.28907-8.94434 32.85368 32.85368 0 01.12427-10.04077 31.15026 31.15026 0 013.8772-9.28833 37.83549 37.83549 0 016.30933-7.86865 29.79981 29.79981 0 018.38256-5.66993 22.78154 22.78154 0 019.94556-1.96142 22.09153 22.09153 0 019.82105 2.48486 25.18522 25.18522 0 017.72607 6.49536 46.5866 46.5866 0 015.36035 8.48462C343.58685 125.49539 344.91937 128.5574 346.13641 131.66263zm-.09278.03735c-2.51953-6.14331-5.44092-12.26636-9.82568-17.24487a25.77751 25.77751 0 00-7.65991-6.07471 21.9739 21.9739 0 00-9.41822-2.30127c-6.5542-.2146-12.86914 2.814-17.6538 7.28833a39.5669 39.5669 0 00-6.29883 7.58569 30.51392 30.51392 0 00-3.99488 8.99976 30.71543 30.71543 0 00-.31152 9.87231 17.807 17.807 0 001.32031 4.76 11.9372 11.9372 0 002.8545 3.981 13.17866 13.17866 0 009.11084 3.08521 31.85509 31.85509 0 009.697-1.75049c3.14917-.96485 6.167-2.447 9.35693-3.48169 3.15967-1.09131 6.33887-2.10108 9.509-3.11694a54.895 54.895 0 009.23877-3.699 10.31831 10.31831 0 003.73609-3.17822 4.51951 4.51951 0 00.77075-2.30762A6.13728 6.13728 0 00346.04363 131.7z"
	></path>
</svg>
