<svg viewBox="0 0 400 300" fill="none" xmlns="http://www.w3.org/2000/svg"><path fill-rule="evenodd" clip-rule="evenodd" d="m116.418 255.442 39.8-7-21-16.3-37.5 7.3 18.7 16ZM225.318 237.142l63-11.1-33.3-25.9-59.3 11.6 29.6 25.4Z" fill="#EFEFEF"/><path fill-rule="evenodd" clip-rule="evenodd" d="m97.118 226.342 29-5.1-15.4-11.9-27.2 5.3 13.6 11.7Z" fill="#DCDDDD"/><path fill-rule="evenodd" clip-rule="evenodd" d="m139.917 231.142 28.9-5.1-15.3-11.9-27.2 5.3 13.6 11.7Z" fill="#EFEFEF"/><path fill-rule="evenodd" clip-rule="evenodd" d="m181.918 237.142 29-5.1-15.3-11.9-27.2 5.3 13.5 11.7Z" fill="#DCDDDD"/><path d="m115.818 166.042-17.9-13" stroke="#000" stroke-width="1.5" stroke-dasharray="4 4"/><path d="m103.717 180.142-8.6 30.8c-.9 1.9.5 4.2 2.6 4.2 0 0 18.3-3.3 27.5-4.9M222.018 110.242l-100.3-7" stroke="#000" stroke-width="1.5"/><path fill-rule="evenodd" clip-rule="evenodd" d="M110.918 103.242h13.2v-13.1l-13.2 3.3v9.8Z" fill="#fff"/><path d="M110.918 103.242h13.2v-13.1l-13.2 3.3v9.8Z" stroke="#000" stroke-width="1.5"/><path fill-rule="evenodd" clip-rule="evenodd" d="M315.417 136.242c-5.4-.4-12.6-1.5-20.1-4.2-14.9-5.2-52.7-23.3-60-25.1-7.2-1.9-12.2 2.4-16.3 8.5-4.1 6.1-27.9 40.9-27.9 40.9l25.3 17.4 19.9-47.4s19.1 8.3 32.1 11.2c13 2.9 44.2 9.6 44.2 9.6l12.4-13.7s-4.2 3.2-9.6 2.8Z" fill="#fff"/><path d="M315.417 136.242c-5.4-.4-12.6-1.5-20.1-4.2-14.9-5.2-52.7-23.3-60-25.1-7.2-1.9-12.2 2.4-16.3 8.5-4.1 6.1-27.9 40.9-27.9 40.9l25.3 17.4 19.9-47.4s19.1 8.3 32.1 11.2c13 2.9 44.2 9.6 44.2 9.6l12.4-13.7s-4.2 3.2-9.6 2.8Z" stroke="#000" stroke-width="1.5"/><path fill-rule="evenodd" clip-rule="evenodd" d="m317.517 154.542 2.2-.6-2.7-4.6 9.8-1.6 11.5-21.8-13.3 7.5s-8.2 11.1-17.2 12.2l9.7 8.9Z" fill="#EFEFEF"/><path d="m317.517 154.542 2.2-.6-2.7-4.6 9.8-1.6 11.5-21.8-13.3 7.5s-8.2 11.1-17.2 12.2l9.7 8.9Z" stroke="#000" stroke-width="1.5"/><path fill-rule="evenodd" clip-rule="evenodd" d="M126.217 55.042s-16.4-2.6-25.2 8.1-2.2 21.4 7.5 28.9c3.8 2.9 14.7 4.7 17.7 2.3 7.6-6 6.5-17 6.1-22.2-.4-5.3-4.4-13.2-6.1-17.1Z" fill="#fff"/><path d="M126.217 55.042s-16.4-2.6-25.2 8.1-2.2 21.4 7.5 28.9c3.8 2.9 14.7 4.7 17.7 2.3 7.6-6 6.5-17 6.1-22.2-.4-5.3-4.4-13.2-6.1-17.1Z" stroke="#000" stroke-width="1.5"/><path fill-rule="evenodd" clip-rule="evenodd" d="M121.218 118.342c7.5 1.1 10-7.1 10-7.1s-15.8-4.7-17.4-9.5l-2.9 2c0-.1 2.8 13.5 10.3 14.6ZM239.917 115.142c-5.5 4.9-40.8 29.1-40.8 29.1l20.2 23.1 34.6-37.3s14.6 10.9 26.5 17c11.8 6.1 38.7 18.4 38.7 18.4l15.4-10.2s-4.9 2.1-9.9.3c-5.1-1.8-11.9-4.6-18.4-9-13.1-8.8-41.7-31.9-48.2-35.5-6.7-3.7-12.6-.8-18.1 4.1Z" fill="#fff"/><path d="M239.917 115.142c-5.5 4.9-40.8 29.1-40.8 29.1l20.2 23.1 34.6-37.3s14.6 10.9 26.5 17c11.8 6.1 38.7 18.4 38.7 18.4l15.4-10.2s-4.9 2.1-9.9.3c-5.1-1.8-11.9-4.6-18.4-9-13.1-8.8-41.7-31.9-48.2-35.5-6.7-3.7-12.6-.8-18.1 4.1Z" stroke="#000" stroke-width="1.5"/><path fill-rule="evenodd" clip-rule="evenodd" d="m175.719 103.873 49.186 20.595c2.521.968 5.343.872 7.797-.22a10.22 10.22 0 0 0 5.381-5.647l2.007-5.228 16.772-43.692c2.365-6.161 6.11-10.615 12.343-8.437L220.192 42.43a12.254 12.254 0 0 0-9.412.243c-2.972 1.323-5.332 3.845-6.479 6.832l-9.21 23.993-7.188 19.842-1.025 2.392a13.548 13.548 0 0 1-11.159 8.141Z" fill="#5578EC"/><path d="m175.719 103.873 49.186 20.595c2.521.968 5.343.872 7.797-.22a10.22 10.22 0 0 0 5.381-5.647l2.007-5.228 16.772-43.692c2.365-6.161 6.11-10.615 12.343-8.437L220.192 42.43a12.254 12.254 0 0 0-9.412.243c-2.972 1.323-5.332 3.845-6.479 6.832l-9.21 23.993-7.188 19.842-1.025 2.392a13.548 13.548 0 0 1-11.159 8.141Z" stroke="#3351E5" stroke-width="9"/><path d="m243.779 68.108 3.324 7.142M249.294 70.37l-7.495 2.546M232.588 90.66l3.323 7.142M238.103 92.923l-7.496 2.545" stroke="#fff" stroke-width="3"/><path fill-rule="evenodd" clip-rule="evenodd" d="m210.431 63.342 20.5 7.9c1.2.5 2.6.4 3.8-.1 1.2-.5 2.2-1.5 2.6-2.8.5-1.2.4-2.6-.1-3.8-.5-1.2-1.5-2.2-2.8-2.6l-20.5-7.9c-1.2-.5-2.6-.4-3.8.1-1.2.5-2.2 1.5-2.6 2.8-.5 1.2-.4 2.6.1 3.8.6 1.2 1.6 2.1 2.8 2.6ZM202.531 86.342l17.3 6.6c1.2.5 2.6.4 3.8-.1 1.2-.5 2.2-1.5 2.6-2.8.5-1.2.4-2.6-.1-3.8-.5-1.2-1.5-2.2-2.8-2.6l-17.2-6.6c-1.2-.5-2.6-.4-3.8.1-1.2.5-2.2 1.5-2.6 2.8-.5 1.2-.4 2.6.1 3.8.5 1.2 1.5 2.2 2.7 2.6Z" fill="#fff"/><path d="m103.718 180.142 71.8-4.4" stroke="#000" stroke-width="1.5"/><mask id="a" style="mask-type:alpha" maskUnits="userSpaceOnUse" x="314" y="151" width="36" height="23"><path d="M314.77 173.693h34.5v-22.6h-34.5v22.6Z" fill="#fff"/></mask><mask id="b" style="mask-type:alpha" maskUnits="userSpaceOnUse" x="314" y="151" width="36" height="23"><path d="M314.77 173.693h34.5v-22.6h-34.5v22.6Z" fill="#fff"/></mask><g mask="url(#b)"><path fill-rule="evenodd" clip-rule="evenodd" d="M321.97 173.693h2.3l-1.4-5.1 9.8.9 16.6-18.4-14.8 4.1s-10.7 8.7-19.7 7.5l7.2 11Z" fill="#EFEFEF"/><path d="M321.97 173.693h2.3l-1.4-5.1 9.8.9 16.6-18.4-14.8 4.1s-10.7 8.7-19.7 7.5l7.2 11Z" stroke="#000" stroke-width="1.5"/></g><path fill-rule="evenodd" clip-rule="evenodd" d="M155.417 117.042c-2.2-3.6-13.4-7.8-13.4-7.8-3.4-3.2-14.1-9.6-18.3-10 0 0-7.4 6.2-16.2.4 0 0-6.6 17.1 5.5 45 4.2 9.8 25.7 30.4 35.3 37.9 9.6 7.5 23.3 18.3 29.2 19.6 5.8 1.2 32.4-4.5 40.7-6.2 8.3-1.6 12.5-2.1 12.5-2.1s3-23.8-4.9-32.1-23.4-26.2-23.4-26.2-15.4 15-28.2 10.9c-8.3-2.7-2.3 1.1-10-8.3-2.2-2.7-6.6-17.5-8.8-21.1Z" fill="#EFEFEF"/><path d="M155.417 117.042c-2.2-3.6-13.4-7.8-13.4-7.8-3.4-3.2-14.1-9.6-18.3-10 0 0-7.4 6.2-16.2.4 0 0-6.6 17.1 5.5 45 4.2 9.8 25.7 30.4 35.3 37.9 9.6 7.5 23.3 18.3 29.2 19.6 5.8 1.2 32.4-4.5 40.7-6.2 8.3-1.6 12.5-2.1 12.5-2.1s3-23.8-4.9-32.1-23.4-26.2-23.4-26.2-15.4 15-28.2 10.9c-8.3-2.7-2.3 1.1-10-8.3-2.2-2.7-6.6-17.5-8.8-21.1Z" stroke="#000" stroke-width="1.5"/><path fill-rule="evenodd" clip-rule="evenodd" d="M86.418 99.342c-3.7 3.9-14.3 14.2-11.1 26.1 1.9 6.9 7.9 9.5 13.1 14.4 3.8 3.6 3.8 9.9 8.5 8.6 10.9-3.2 13.1-14.6 13.1-23s5.3-8.5 3.1-16.2c-2.2-7.7-6.6-16.5-4.4-18.7 2.2-2.2 2.6-6.2-1-10.4s-3.3-10.1 0-14.7 4.8-3.1 9.3-3.1c3.4 0 6.2-3.5 7.4-3.5 3.2 0 3.5 3.5 5.9 3.5 4 0 1.2-2.3 1.2-2.3s1.1-3.5.7-5.4c-.7-3.4-4.3-5.9-7.9-5.3-3 .4-5.5-7.5-19.9-3.4-14.3 4.2-16.1 32.1-16.1 37.8 0 5.7 1.9 11.7-1.9 15.6Z" fill="#000"/><path d="m118.918 75.642 1.7 2c.6.8.9 1.8.8 2.7-.1.9-.7 1.8-1.6 2.3" stroke="#000" stroke-width="1.5"/><path d="m205.698 126.506-11.4 73.8M115.798 165.506l125.1 3.7M152.697 122.406l7.8 84.1" stroke="#000" stroke-width="1.5" stroke-dasharray="4 4"/><path d="m106.298 120.806 146.4 8.2-19.4 65-106.8 18.5-27.4-120M126.498 212.506l-11.4 23.7c-.9 1.5.5 3.2 2.6 3.2l98.9-16.2" stroke="#000" stroke-width="1.5"/><path fill-rule="evenodd" clip-rule="evenodd" d="M108.061 231.483c4.5 0 8.2-3.7 8.2-8.2 0-4.5-3.7-8.2-8.2-8.2-4.5 0-8.2 3.7-8.2 8.2 0 4.5 3.7 8.2 8.2 8.2Z" fill="#000"/><path fill-rule="evenodd" clip-rule="evenodd" d="M108.02 227.143c2.2 0 3.9-1.7 3.9-3.9s-1.7-3.8-3.9-3.8-3.8 1.7-3.8 3.8c0 2.1 1.7 3.9 3.8 3.9Z" fill="url(#c)"/><path fill-rule="evenodd" clip-rule="evenodd" d="m113.161 220.608.5-7.6-13.3 2.6 3.4 6.9c1 2 3.2 3.1 5.4 2.7 2.2-.5 3.8-2.3 4-4.6ZM136.338 253.635c4.498.157 8.325-3.411 8.482-7.909.157-4.497-3.412-8.324-7.909-8.481-4.497-.157-8.324 3.412-8.481 7.909-.157 4.497 3.411 8.324 7.908 8.481Z" fill="#000"/><path fill-rule="evenodd" clip-rule="evenodd" d="M136.448 249.296c2.199.077 3.957-1.563 4.034-3.761.073-2.099-1.567-3.857-3.765-3.934a3.8 3.8 0 0 0-3.931 3.665c-.073 2.099 1.563 3.957 3.662 4.03Z" fill="url(#d)"/><path fill-rule="evenodd" clip-rule="evenodd" d="m141.815 242.944.765-7.577-13.383 2.134 3.157 7.014a5.032 5.032 0 0 0 5.303 2.887c2.216-.423 3.878-2.166 4.158-4.458ZM201.18 243.254c4.5 0 8.2-3.7 8.2-8.2 0-4.5-3.7-8.2-8.2-8.2-4.5 0-8.2 3.7-8.2 8.2 0 4.5 3.7 8.2 8.2 8.2Z" fill="#000"/><path fill-rule="evenodd" clip-rule="evenodd" d="M201.139 238.913c2.2 0 3.9-1.7 3.9-3.9s-1.7-3.8-3.9-3.8-3.8 1.7-3.8 3.8c0 2.1 1.7 3.9 3.8 3.9Z" fill="url(#e)"/><path fill-rule="evenodd" clip-rule="evenodd" d="m206.28 232.378.5-7.6-13.3 2.6 3.4 6.9c1 2 3.2 3.1 5.4 2.7 2.2-.5 3.8-2.3 4-4.6Z" fill="#000"/><path d="m125.018 219.842 101.2-19.5 7.2-6.4" stroke="#000" stroke-width="1.5"/><path fill-rule="evenodd" clip-rule="evenodd" d="M208.218 135.642c3.7-.6 8.9-7 8.4-9.1-.5-2.1-.2-1.9-1.9-2.1-1.6-.2-2.9 0-2.9 0s-.6-1-1.9-1c-1.4 0-3.2 1-3.2 1s-.9-2.1-2.1-2.1c-1.2 0-3.1 2.1-3.1 2.1v-.8c.1-.7-.1-1.3-.5-1.9-.4-.5-1.1-.8-1.8-.8-.8.1-1.6.5-2.4 1.4-1.3 1.7-1.4 2.1-1.8 3.1-.9 2.6-2.6 8.6-2.6 8.6l4.7 7.1c0 .1 7.4-4.9 11.1-5.5Z" fill="#fff"/><path d="M208.218 135.642c3.7-.6 8.9-7 8.4-9.1-.5-2.1-.2-1.9-1.9-2.1-1.6-.2-2.9 0-2.9 0s-.6-1-1.9-1c-1.4 0-3.2 1-3.2 1s-.9-2.1-2.1-2.1c-1.2 0-3.1 2.1-3.1 2.1v-.8c.1-.7-.1-1.3-.5-1.9-.4-.5-1.1-.8-1.8-.8-.8.1-1.6.5-2.4 1.4-1.3 1.7-1.4 2.1-1.8 3.1-.9 2.6-2.6 8.6-2.6 8.6l4.7 7.1c0 .1 7.4-4.9 11.1-5.5Z" stroke="#000" stroke-width="1.5"/><path fill-rule="evenodd" clip-rule="evenodd" d="M140.218 111.042c-7.7-5.9-13.7-3.5-16.1.3-2.4 3.8-1.7 7 1.4 12.7 3 5.7 37.2 34.2 44.9 35.3 7.9 1.1 13.3-4.6 20-10.7 2.8-2.5 6.7-7.1 6.7-7.4-.8-2.9-2.2-5.4-4.7-7.1 0 0-18 11.4-22 10-1.7-.6-9.1-12.4-17.7-21.8-4.6-5-9.8-9.3-12.5-11.3Z" fill="#fff"/><path d="M140.218 111.042c-7.7-5.9-13.7-3.5-16.1.3-2.4 3.8-1.7 7 1.4 12.7 3 5.7 37.2 34.2 44.9 35.3 7.9 1.1 13.3-4.6 20-10.7 2.8-2.5 6.7-7.1 6.7-7.4-.8-2.9-2.2-5.4-4.7-7.1 0 0-18 11.4-22 10-1.7-.6-9.1-12.4-17.7-21.8-4.6-5-9.8-9.3-12.5-11.3ZM120.117 87.542c2 .1 4.2-.5 5.3-1.8" stroke="#000" stroke-width="1.5"/><path d="M79.018 117.042c-.9 7.5 2 11.3 5.7 14.4" stroke="#fff" stroke-width="1.5"/><path d="M110.018 75.442c1.5-1.6 3.2-2.4 5.3-1.7M121.718 73.442c1.5-1.6 3.2-2.4 5.3-1.7M126.317 210.942l-22.6-30.8-13.9-63.1" stroke="#000" stroke-width="1.5"/><path d="M168.918 100.242c.9-.4 1.6-1 2.1-1.7.5-.8.8-1.7.8-2.6 0-1.2-.5-2.4-1.4-3.3-.9-.9-2.1-1.4-3.3-1.4-.9 0-1.8.3-2.6.8s-1.4 1.3-1.7 2.1c-.4.9-.5 1.8-.3 2.7.2.9.6 1.8 1.3 2.4.7.7 1.5 1.1 2.4 1.3.9.2 1.9.1 2.7-.3ZM261.817 105.242l7.5-3.6M265.518 97.442l7.5-3.6" stroke="#5578EC" stroke-width="1.944"/><defs><linearGradient id="c" x1="111.9" y1="223.282" x2="104.22" y2="223.282" gradientUnits="userSpaceOnUse"><stop stop-color="#CFE1F2"/><stop offset="1" stop-color="#EDF4FB"/></linearGradient><linearGradient id="d" x1="140.486" y1="245.569" x2="132.806" y2="245.569" gradientUnits="userSpaceOnUse"><stop stop-color="#CFE1F2"/><stop offset="1" stop-color="#EDF4FB"/></linearGradient><linearGradient id="e" x1="205.019" y1="235.053" x2="197.339" y2="235.053" gradientUnits="userSpaceOnUse"><stop stop-color="#CFE1F2"/><stop offset="1" stop-color="#EDF4FB"/></linearGradient></defs></svg>