<svg viewBox="0 0 400 300" fill="none" xmlns="http://www.w3.org/2000/svg"><path fill-rule="evenodd" clip-rule="evenodd" d="m208.217 223.782 32.2-39.1-73.3-57-58.2 44.8 83.6 53.8c5.1 3.3 11.9 2.2 15.7-2.5Z" fill="#EFEFEF"/><path d="m129.117 174.282 35-27.7-35 27.7Z" fill="#fff"/><path d="m129.117 174.282 35-27.7" stroke="#B5B5B6" stroke-width="1.5"/><path d="m141.117 179.882 35-27.7-35 27.7Z" fill="#fff"/><path d="m141.117 179.882 35-27.7" stroke="#B5B5B6" stroke-width="1.5"/><path d="m151.117 186.182 27.8-22.3-27.8 22.3Z" fill="#fff"/><path d="m151.117 186.182 27.8-22.3" stroke="#B5B5B6" stroke-width="1.5"/><path d="m158.617 194.081 27.1-22.1-27.1 22.1Z" fill="#fff"/><path d="m158.617 194.081 27.1-22.1" stroke="#B5B5B6" stroke-width="1.5"/><path d="m170.617 199.681 35-27.7-35 27.7Z" fill="#fff"/><path d="m170.617 199.681 35-27.7" stroke="#B5B5B6" stroke-width="1.5"/><path d="m180.617 206.082 35-27.7-35 27.7Z" fill="#fff"/><path d="m180.617 206.082 35-27.7" stroke="#B5B5B6" stroke-width="1.5"/><path fill-rule="evenodd" clip-rule="evenodd" d="m259.229 121.688 19.8.3-4.4-22.5s-17 .9-17.4 2.4c-.4 1.5 2 19.8 2 19.8Z" fill="#fff"/><path d="m259.229 121.688 19.8.3-4.4-22.5s-17 .9-17.4 2.4c-.4 1.5 2 19.8 2 19.8Z" stroke="#000" stroke-width="1.5"/><path fill-rule="evenodd" clip-rule="evenodd" d="m161.157 238.041 32.7-29.5c2.2-2 3.4-4.9 3.3-7.9-.1-3-1.6-5.7-4-7.5l-66-49.8c-3.6-2.7-8.6-2.7-12.1.1l-40.9 31.5c-2.6 2-4 5.1-3.9 8.3.1 3.2 1.8 6.2 4.6 8l74.2 47.8c3.8 2.5 8.8 2.1 12.1-1Z" fill="#EFEFEF"/><path d="m83.157 185.441 35-27.7-35 27.7Z" fill="#fff"/><path d="m83.157 185.441 35-27.7" stroke="#B5B5B6" stroke-width="1.5"/><path d="m95.157 191.041 35-27.7-35 27.7Z" fill="#fff"/><path d="m95.157 191.041 35-27.7" stroke="#B5B5B6" stroke-width="1.5"/><path d="m105.157 197.341 27.8-22.3-27.8 22.3Z" fill="#fff"/><path d="m105.157 197.341 27.8-22.3" stroke="#B5B5B6" stroke-width="1.5"/><path d="m112.657 205.241 27.1-22.1-27.1 22.1Z" fill="#fff"/><path d="m112.657 205.241 27.1-22.1" stroke="#B5B5B6" stroke-width="1.5"/><path d="m124.657 210.841 35-27.7-35 27.7Z" fill="#fff"/><path d="m124.657 210.841 35-27.7" stroke="#B5B5B6" stroke-width="1.5"/><path d="m134.657 217.241 35-27.7-35 27.7Z" fill="#fff"/><path d="m134.657 217.241 35-27.7" stroke="#B5B5B6" stroke-width="1.5"/><path fill-rule="evenodd" clip-rule="evenodd" d="m150.229 192.288 37.1-33.5c1.5-1.4 2.4-3.4 2.3-5.5-.1-2.1-1.1-4-2.8-5.3l-70.7-53.3c-2.5-1.9-6-1.9-8.5 0l-46 35.5c-1.8 1.4-2.8 3.6-2.7 5.8.1 2.3 1.3 4.4 3.2 5.6l79.7 51.3c2.6 1.8 6.1 1.5 8.4-.6Z" fill="#fff"/><path d="m150.229 192.288 37.1-33.5c1.5-1.4 2.4-3.4 2.3-5.5-.1-2.1-1.1-4-2.8-5.3l-70.7-53.3c-2.5-1.9-6-1.9-8.5 0l-46 35.5c-1.8 1.4-2.8 3.6-2.7 5.8.1 2.3 1.3 4.4 3.2 5.6l79.7 51.3c2.6 1.8 6.1 1.5 8.4-.6Z" stroke="#000" stroke-width="1.5"/><path fill-rule="evenodd" clip-rule="evenodd" d="m72.23 135.888-.1.1c-1.1 1-1.2 2.6-.3 3.7.9 1.2 2.7 1.4 3.9.5l34.999-27.7.1-.1c1.1-1 1.2-2.6.3-3.7-.9-1.2-2.7-1.4-3.9-.5l-35 27.7Z" fill="#D8D8D8"/><path d="m85.929 143.688 35-27.7-35 27.7Z" fill="#fff"/><path d="m85.929 143.688 35-27.7" stroke="#000" stroke-width="1.5"/><path fill-rule="evenodd" clip-rule="evenodd" d="M94.529 148.288c-.9.9-1.1 2.2-.3 3.2s2.2 1.1 3.2.3l27.8-22.3.1-.1c.9-.8 1-2.1.2-3.1s-2.2-1.1-3.2-.3l-27.8 22.3Z" fill="#D8D8D8"/><path d="m103.429 157.888 27.1-22.1-27.1 22.1Z" fill="#fff"/><path d="m103.429 157.888 27.1-22.1" stroke="#000" stroke-width="1.5"/><path d="m115.429 163.488 35-27.7-35 27.7Z" fill="#fff"/><path d="m115.429 163.488 35-27.7" stroke="#000" stroke-width="1.5" stroke-dasharray="3 3"/><path d="m125.429 169.788 35-27.7-35 27.7Z" fill="#fff"/><path d="m125.429 169.788 35-27.7" stroke="#000" stroke-width="1.5"/><path fill-rule="evenodd" clip-rule="evenodd" d="M284.428 94.088c0-3.9 1.8-17.8 1.8-22.1 0-4.2-5.3-11.7-14.6-21.4-9.4-9.6-32.6-2-32.6-2l-12.5 38 5.4-2.2s.5 11 7.8 17.3c7.3 6.3 18.9 5.5 18.9 5.5s8.1 0 12.9-1.5c4.7-1.5 12.9-7.7 12.9-11.6Z" fill="#fff"/><path d="M284.428 94.088c0-3.9 1.8-17.8 1.8-22.1 0-4.2-5.3-11.7-14.6-21.4-9.4-9.6-32.6-2-32.6-2l-12.5 38 5.4-2.2s.5 11 7.8 17.3c7.3 6.3 18.9 5.5 18.9 5.5s8.1 0 12.9-1.5c4.7-1.5 12.9-7.7 12.9-11.6Z" stroke="#000" stroke-width="1.5"/><path fill-rule="evenodd" clip-rule="evenodd" d="M240.529 76.588c0-1.5-1.2-2.8-2.8-2.8-1.6 0-2.8 1.2-2.8 2.8 0 1.6 1.2 2.8 2.8 2.8 1.6 0 2.8-1.3 2.8-2.8Z" fill="#000"/><path d="M238.629 96.688c1.7.7 3.4.4 5 0h-5Z" fill="#090909"/><path d="M238.629 96.688c1.7.7 3.4.4 5 0" stroke="#000" stroke-width="1.5"/><path fill-rule="evenodd" clip-rule="evenodd" d="M159.085 148.797c-.828-.94 2.477 3.136 6.372 5.299 3.118 1.667 6.775 2.146 8.193 2.343.41.043.701-.17.931-.512l3.172-4.912-17.342-7.908-1.65 3.656c-.367.718-.231 1.513.324 2.034Z" fill="#D8D8D8"/><path d="M159.085 148.797c-.828-.94 2.477 3.136 6.372 5.299 3.118 1.667 6.775 2.146 8.193 2.343.41.043.701-.17.931-.512l3.172-4.912-17.342-7.908-1.65 3.656c-.367.718-.231 1.513.324 2.034Z" stroke="#000" stroke-width="1.5"/><path fill-rule="evenodd" clip-rule="evenodd" d="m172.859 144.871 1.479-3.186s4.81-.058 5.87-2.972c1.06-2.913-4.244-5.588-4.244-5.588s-6.348-2.736-7.579.647c-1.231 3.383 1.707 5.836 1.707 5.836l-1.479 3.186s-6.543-2.488-7.928-.438c-1.385 2.05.964 5.246 6.192 8.426 5.227 3.179 10.089 2.395 10.841.327.787-2.161-4.859-6.238-4.859-6.238Z" fill="#fff"/><path d="m172.859 144.871 1.479-3.186s4.81-.058 5.87-2.972c1.06-2.913-4.244-5.588-4.244-5.588s-6.348-2.736-7.579.647c-1.231 3.383 1.707 5.836 1.707 5.836l-1.479 3.186s-6.543-2.488-7.928-.438c-1.385 2.05.964 5.246 6.192 8.426 5.227 3.179 10.089 2.395 10.841.327.787-2.161-4.859-6.238-4.859-6.238Z" stroke="#000" stroke-width="1.5"/><path d="M168.676 133.558c-.035 3.605 7.396 7.162 10.729 5.608" stroke="#0D0D0D"/><path fill-rule="evenodd" clip-rule="evenodd" d="M192.629 139.988c-1-2.9-.1-3.4-2-7.1-1.9-3.7-4.9-7.7-9.6-7.3-1.3.1-2.6.5-4.2 1.2-2.3 1.1-7.4 5.5-7.4 5.5s1.2-.3 2.6-.3c1.4 0 2 .3 2 .3s3.9.9 6.1 3.4c2.2 2.5 2.2 5.2 2.2 5.2s-2.6-1.3-4-1.7c-1.4-.4-2.5.7-2 1.6.5 1 2.2 3.5 5.4 5.2 3.2 1.6 5.4.4 5.4.4l5.5 7.7 4.2-7.9s-3.2-3.2-4.2-6.2Z" fill="#fff"/><path d="M192.629 139.988c-1-2.9-.1-3.4-2-7.1-1.9-3.7-4.9-7.7-9.6-7.3-1.3.1-2.6.5-4.2 1.2-2.3 1.1-7.4 5.5-7.4 5.5s1.2-.3 2.6-.3c1.4 0 2 .3 2 .3s3.9.9 6.1 3.4c2.2 2.5 2.2 5.2 2.2 5.2s-2.6-1.3-4-1.7c-1.4-.4-2.5.7-2 1.6.5 1 2.2 3.5 5.4 5.2 3.2 1.6 5.4.4 5.4.4l5.5 7.7 4.2-7.9s-3.2-3.2-4.2-6.2Z" stroke="#000" stroke-width="1.5"/><path d="M303.129 169.288c.1-19.4-4.6-38.9-18.6-50.3-2.7-2.2-13-2.8-20-2.1-7 .7-12.3 2.1-20.2 10.8-7.9 8.7-20.6 42.1-20.6 42.1l-24.3-29.2-11.2 15.4 15.3 31.3c2.9 6 8.7 10.2 15.4 11.1 6.6.9 13.3-1.6 17.7-6.7l19-21.9" fill="#fff"/><path d="M303.129 169.288c.1-19.4-4.6-38.9-18.6-50.3-2.7-2.2-13-2.8-20-2.1-7 .7-12.3 2.1-20.2 10.8-7.9 8.7-20.6 42.1-20.6 42.1l-24.3-29.2-11.2 15.4 15.3 31.3c2.9 6 8.7 10.2 15.4 11.1 6.6.9 13.3-1.6 17.7-6.7l19-21.9" stroke="#000" stroke-width="1.5"/><path fill-rule="evenodd" clip-rule="evenodd" d="M188.929 202.688c0-3.8-3.9-6.9-8.7-6.9-4.8 0-8.8 3.1-8.8 6.9 0 3.8 3.9 6.9 8.8 6.9 4.8 0 8.7-3.1 8.7-6.9Z" fill="#B5B5B6"/><path fill-rule="evenodd" clip-rule="evenodd" d="m181.329 197.488-.7 2.6c-.1.3-.3.4-.6.3-.2-.1-.4-.3-.4-.5v-.1l.7-2.6c.1-.2.3-.4.5-.4h.1c.3.1.5.4.4.7Zm-4.7 1c.2-.1.5-.1.6 0l.1.1 1.6 2.2c.2.2.1.5-.1.7-.2.1-.5.1-.6 0l-.1-.1-1.6-2.2c-.1-.2-.1-.5.1-.7Zm5.2 1.6 2.5-1.1c.2-.1.5 0 .6.2v.1c.1.2 0 .5-.2.6h-.1l-2.5 1.1c-.3.1-.6 0-.7-.3.1-.2.2-.4.4-.6Zm3.8 3.8c-.1.2-.4.3-.6.2h-.1l-2.4-1.3c-.2-.1-.3-.4-.2-.7.1-.2.4-.3.6-.2h.1l2.4 1.3c.2.1.3.4.2.7Zm-7.1-.3-2.8-.1c-.2 0-.4-.2-.5-.4v-.1c0-.2.2-.4.4-.5h.1l2.7.1c.3 0 .5.2.5.5 0 .2-.2.4-.4.5Zm3.3 3.2-.5-2.7c-.1-.3.1-.5.4-.6.2-.1.5.1.6.3v.1l.5 2.7c.1.3-.1.5-.4.6-.3.1-.5-.1-.6-.4Zm-4.2-.6 1.8-2.1c.2-.2.5-.2.7-.1.2.2.2.4.1.6l-.1.1-1.8 2c-.2.2-.5.2-.7 0-.1-.1-.1-.3 0-.5Z" fill="#fff"/><path fill-rule="evenodd" clip-rule="evenodd" d="M264.729 83.388c6.6 7.6 2.7 18 11.9 29.4 9.3 11.5 25.4 23.6 35.2 22.9 9.8-.7-13-11.1-17.5-28.6s-1.1-33.4-.2-45.7c.9-12.3-9.3-19.1-9.3-19.1s3-2.3-1.5-7.5c-1.8-2.1-18.7-6.9-30.1-.4-3.2 1.9-10.6 7.5-10.6 7.5s1.7-3.4-1.4-6.1c-3.2-2.8-9.6 7.7-9.6 7.7s0 1.7-4.3-1.5-7.3 10.6-5.7 15.7c1.6 5.1 10 3.8 10 3.8s4.5 9.1 12.7 13c8.5 3.9 13.8 1.3 20.4 8.9Z" fill="#090909"/><path d="M264.729 83.388c6.6 7.6 2.7 18 11.9 29.4 9.3 11.5 25.4 23.6 35.2 22.9 9.8-.7-13-11.1-17.5-28.6s-1.1-33.4-.2-45.7c.9-12.3-9.3-19.1-9.3-19.1s3-2.3-1.5-7.5c-1.8-2.1-18.7-6.9-30.1-.4-3.2 1.9-10.6 7.5-10.6 7.5s1.7-3.4-1.4-6.1c-3.2-2.8-9.6 7.7-9.6 7.7s0 1.7-4.3-1.5-7.3 10.6-5.7 15.7c1.6 5.1 10 3.8 10 3.8s4.5 9.1 12.7 13c8.5 3.9 13.8 1.3 20.4 8.9Z" stroke="#000"/><path fill-rule="evenodd" clip-rule="evenodd" d="M197.329 153.588h5.3v-3.8l1.5-3.2-4.7-5.8-11.2 14.9 3.2 6.8 5.9-8.9Z" fill="#D8D8D8"/><path d="M197.329 153.588h5.3v-3.8l1.5-3.2-4.7-5.8-11.2 14.9 3.2 6.8 5.9-8.9Z" stroke="#000" stroke-width="1.5"/><path d="m169.629 175.088 33.2 24.6-22.3 19.9" stroke="#000"/><path d="m181.601 77.976-4.323 7.083M188.232 75.086l-4.228 7.051" stroke="#5578EC" stroke-width="1.944"/><path fill-rule="evenodd" clip-rule="evenodd" d="M165.417 90.29c0-24.6-19.9-44.5-44.5-44.5s-44.5 19.9-44.5 44.5 19.9 44.5 44.5 44.5 44.5-19.9 44.5-44.5Z" fill="#5578EC"/><path d="M165.417 90.29c0-24.6-19.9-44.5-44.5-44.5s-44.5 19.9-44.5 44.5 19.9 44.5 44.5 44.5 44.5-19.9 44.5-44.5Z" stroke="#3351E5" stroke-width="9"/><path fill-rule="evenodd" clip-rule="evenodd" d="M148.017 78.89c1.7-2.3 1.4-5.5-.8-7.4-2.3-1.9-5.7-1.6-7.6.6l-23.2 27.4-13.7-9.6c-2.4-1.5-5.6-.9-7.3 1.5-1.7 2.4-1.1 5.8 1.3 7.5l17.5 12.2.2.2c2.2 1.4 5.2 1 7-1.1l26.6-31.3Z" fill="#fff"/><path d="M232.329 243.188c18-16.4 20.3-35.8 11.9-57l5.7-6.4c4.5 10.6 11.3 16 20.4 16 9.1 0 16.8-13.2 32.9-23.8 1.5 22.1-13.4 33.9-10.2 48.8 1.5 8 4.2 12.5 6.9 18" fill="#EFEFEF"/><path d="M232.329 243.188c18-16.4 20.3-35.8 11.9-57l5.7-6.4c4.5 10.6 11.3 16 20.4 16 9.1 0 16.8-13.2 32.9-23.8 1.5 22.1-13.4 33.9-10.2 48.8 1.5 8 4.2 12.5 6.9 18" stroke="#000" stroke-width="1.5"/><path d="M260.128 212.388s1.5 7.2-2.8 15.6c-4.3 8.4-9.3 13.2-9.3 13.2" stroke="#000" stroke-width="1.5" stroke-dasharray="4 4"/><path d="M108.429 134.888c-.4-.8-1.1-1.5-1.9-2-.8-.5-1.7-.7-2.7-.6-.9.1-1.8.4-2.6 1s-1.3 1.4-1.6 2.2c-.3.9-.3 1.8-.1 2.7.3 1.2 1.1 2.2 2.2 2.9 1.1.6 2.4.8 3.6.5.9-.2 1.7-.7 2.3-1.4.6-.7 1-1.6 1.1-2.5.3-1.1.1-2-.3-2.8Z" stroke="#5578EC" stroke-width="1.944"/><path d="M267.829 223.188s1.5 4.2 1.9 6.8c.4 2.6 0 8.8 0 8.8M281.929 217.188s.7 10.9 2.7 14.9 4.4 5.5 4.4 5.5" stroke="#000" stroke-width="1.5" stroke-dasharray="4 4"/><path d="M256.329 81.888s3.2.4 3.9 2.5c.6 2.1 0 3.2 0 3.2" stroke="#0B0B0B" stroke-width="1.5"/><path d="M276.928 41.688s1.6 3.8 0 5.8 4.2 1.9 5.5 3.8M224.028 53.688s-.9 3.7 1 4.9c1.9 1.2 2.7 1.2 2.7 1.2M277.429 97.388s0 7.8 2.9 11.6 4.2 5.2 4.2 5.2" stroke="#fff" stroke-width="1.5"/><path d="M176.429 127.288c3.8-.4 6.8 1 9.1 4.4M173.028 129.488c3.8-.4 6.8 1 9.1 4.4" stroke="#000" stroke-width="1.5"/></svg>