<svg width="86" height="86" viewBox="0 0 86 86" fill="none" xmlns="http://www.w3.org/2000/svg">
<path fill-rule="evenodd" clip-rule="evenodd" d="M72.1505 21.2116C72.1509 21.2116 72.1476 21.2185 72.1393 21.2322C72.146 21.2185 72.1501 21.2116 72.1505 21.2116ZM71.4448 22C70.5966 21.2233 69.0837 20.1865 66.6843 19.1271C61.2637 16.7336 53.075 15 43.5 15C33.925 15 25.7363 16.7336 20.3157 19.1271C17.9163 20.1865 16.4034 21.2233 15.5552 22C16.4034 22.7767 17.9163 23.8135 20.3157 24.8729C25.7363 27.2664 33.925 29 43.5 29C53.075 29 61.2637 27.2664 66.6843 24.8729C69.0837 23.8135 70.5966 22.7767 71.4448 22ZM14.8495 21.2116C14.8499 21.2116 14.854 21.2185 14.8608 21.2323C14.8524 21.2185 14.8491 21.2116 14.8495 21.2116ZM14.8495 22.7884C14.8491 22.7884 14.8524 22.7815 14.8608 22.7677C14.854 22.7815 14.8499 22.7883 14.8495 22.7884ZM72.1393 22.7678C72.1476 22.7815 72.1509 22.7884 72.1505 22.7884C72.1501 22.7884 72.146 22.7815 72.1393 22.7678ZM43.5 39C64.763 39 82 31.3888 82 22C82 12.6112 64.763 5 43.5 5C22.237 5 5 12.6112 5 22C5 31.3888 22.237 39 43.5 39Z" fill="#4C5BE1"/>
<rect x="72" y="22" width="10" height="64" fill="url(#paint0_linear_12_366)"/>
<rect x="5" y="22" width="10" height="64" fill="url(#paint1_linear_12_366)"/>
<defs>
<linearGradient id="paint0_linear_12_366" x1="77" y1="22" x2="77" y2="86" gradientUnits="userSpaceOnUse">
<stop stop-color="#4C5BE1"/>
<stop offset="1" stop-color="#4C5BE1" stop-opacity="0"/>
</linearGradient>
<linearGradient id="paint1_linear_12_366" x1="10" y1="22" x2="10" y2="86" gradientUnits="userSpaceOnUse">
<stop stop-color="#4C5BE1"/>
<stop offset="1" stop-color="#4C5BE1" stop-opacity="0"/>
</linearGradient>
</defs>
</svg>
